<?xml version="1.0" encoding="utf-8"?>
<!-- Generator: Adobe Illustrator 16.0.0, SVG Export Plug-In . SVG Version: 6.00 Build 0)  -->
<!DOCTYPE svg PUBLIC "-//W3C//DTD SVG 1.1//EN" "http://www.w3.org/Graphics/SVG/1.1/DTD/svg11.dtd">
<svg version="1.1" id="Layer_1" xmlns="http://www.w3.org/2000/svg" xmlns:xlink="http://www.w3.org/1999/xlink" x="0px" y="0px"
	 width="537.079px" height="111.984px" viewBox="0 0 537.079 111.984" enable-background="new 0 0 537.079 111.984"
	 xml:space="preserve">
<g>
	<g>
		<g>
			<path fill="#FFFFFF" d="M69.956,66.686l0.497,0.082l0.503-0.033l-0.498-0.082L69.956,66.686z"/>
			<path fill="#FFFFFF" d="M69.717,66.932l1.738,0.289l0.515-0.039l-1.73-0.283L69.717,66.932z M68.742,66.77l0.5,0.082l0.525-0.029
				l-0.499-0.088L68.742,66.77z"/>
			<path fill="#FFFFFF" d="M70.716,67.401l0.534,0.088l0.532-0.043l-0.532-0.092L70.716,67.401z M68.469,67.02l1.754,0.299
				l0.535-0.043l-1.747-0.293L68.469,67.02z M67.485,66.858l0.508,0.084l0.546-0.041l-0.506-0.078L67.485,66.858z"/>
			<path fill="#FFFFFF" d="M69.442,67.504l0.538,0.09l0.548-0.043l-0.535-0.094L69.442,67.504z M67.172,67.114l1.771,0.301
				l0.554-0.039l-1.765-0.301L67.172,67.114z M66.18,66.944l0.511,0.088l0.562-0.039l-0.509-0.086L66.18,66.944z"/>
			<path fill="#FFFFFF" d="M68.112,67.606l0.543,0.096l0.575-0.047l-0.542-0.094L68.112,67.606z M65.822,67.211l1.786,0.307
				l0.578-0.045l-1.779-0.305L65.822,67.211z M64.82,67.036l0.516,0.088l0.588-0.037l-0.514-0.09L64.82,67.036z"/>
			<polygon fill="#FFFFFF" points="65.336,67.124 65.924,67.086 66.69,67.032 67.252,66.993 67.993,66.942 68.539,66.901 
				69.244,66.852 69.717,66.932 69.011,66.983 68.469,67.02 67.733,67.075 67.172,67.114 66.407,67.168 65.822,67.211 			"/>
			<polygon fill="#FFFFFF" points="67.608,67.518 68.186,67.473 68.944,67.415 69.498,67.375 70.223,67.319 70.758,67.276 
				71.454,67.221 71.943,67.303 71.25,67.354 70.716,67.401 69.994,67.458 69.442,67.504 68.689,67.561 68.112,67.606 			"/>
			<path fill="#FFFFFF" d="M66.729,67.719l0.549,0.094l0.595-0.051l-0.545-0.092L66.729,67.719z M64.418,67.309l1.805,0.318
				l0.598-0.049l-1.795-0.309L64.418,67.309z M63.408,67.129l0.521,0.094l0.609-0.041l-0.52-0.092L63.408,67.129z"/>
			<path fill="#FFFFFF" d="M65.291,67.833l0.552,0.104l0.622-0.055l-0.552-0.102L65.291,67.833z M62.958,67.415l1.818,0.322
				l0.626-0.041l-1.813-0.326L62.958,67.415z M61.936,67.229l0.526,0.096l0.635-0.043l-0.523-0.094L61.936,67.229z"/>
			<path fill="#FFFFFF" d="M63.784,67.95l0.56,0.104l0.651-0.055l-0.558-0.098L63.784,67.95z M61.429,67.522l1.837,0.334
				l0.655-0.051l-1.828-0.332L61.429,67.522z M60.403,67.336l0.529,0.092l0.664-0.043l-0.529-0.098L60.403,67.336z"/>
			<polygon fill="#FFFFFF" points="60.933,67.428 61.597,67.385 62.462,67.325 63.097,67.282 63.928,67.223 64.538,67.182 
				65.336,67.124 65.822,67.211 65.026,67.27 64.418,67.309 63.588,67.37 62.956,67.415 62.093,67.473 61.429,67.522 			"/>
			<polygon fill="#FFFFFF" points="63.266,67.856 63.921,67.807 64.776,67.737 65.402,67.696 66.223,67.627 66.824,67.579 
				67.608,67.518 68.112,67.606 67.329,67.67 66.729,67.719 65.913,67.78 65.291,67.833 64.437,67.901 63.784,67.95 			"/>
			<path fill="#FFFFFF" d="M62.214,68.075l0.566,0.104l0.676-0.051l-0.562-0.107L62.214,68.075z M59.841,67.637l1.852,0.34
				l0.679-0.051l-1.843-0.338L59.841,67.637z M58.806,67.442l0.533,0.098l0.689-0.045l-0.533-0.098L58.806,67.442z"/>
			<path fill="#FFFFFF" d="M60.57,68.206l0.569,0.109l0.713-0.061l-0.567-0.104L60.57,68.206z M58.178,67.756l1.866,0.352
				l0.716-0.055l-1.861-0.352L58.178,67.756z M57.132,67.555l0.538,0.104l0.725-0.053l-0.536-0.096L57.132,67.555z"/>
			<path fill="#FFFFFF" d="M58.854,68.342l0.576,0.109l0.746-0.055l-0.573-0.113L58.854,68.342z M56.441,67.881l1.882,0.361
				l0.749-0.064l-1.875-0.355L56.441,67.881z M55.39,67.674l0.541,0.104l0.756-0.055l-0.54-0.102L55.39,67.674z"/>
			<polygon fill="#FFFFFF" points="55.931,67.778 56.687,67.723 57.67,67.659 58.395,67.606 59.339,67.54 60.029,67.495 
				60.933,67.428 61.429,67.522 60.529,67.588 59.841,67.637 58.898,67.702 58.178,67.756 57.197,67.823 56.441,67.881 			"/>
			<polygon fill="#FFFFFF" points="58.324,68.243 59.071,68.178 60.044,68.108 60.76,68.053 61.69,67.977 62.372,67.926 
				63.266,67.856 63.784,67.95 62.894,68.02 62.214,68.075 61.285,68.151 60.57,68.206 59.603,68.284 58.854,68.342 			"/>
			<path fill="#FFFFFF" d="M57.058,68.489l0.579,0.115l0.776-0.068l-0.578-0.111L57.058,68.489z M54.626,68.008l1.896,0.369
				l0.781-0.061l-1.891-0.367L54.626,68.008z M53.566,67.799l0.547,0.109l0.786-0.059l-0.542-0.105L53.566,67.799z"/>
			<path fill="#FFFFFF" d="M55.227,68.631c-0.004,0-0.009,0.002-0.014,0.002c-0.006,0-0.011,0-0.014,0c-0.005,0-0.01,0-0.015,0
				s-0.011,0-0.014,0l0.583,0.123l0.82-0.07l-0.581-0.115c-0.031,0.002-0.062,0.002-0.094,0.012c-0.032,0-0.063,0.002-0.095,0.002
				c-0.033,0.006-0.064,0.006-0.097,0.01c-0.029,0.004-0.065,0.01-0.096,0.01c-0.032,0.002-0.065,0.002-0.098,0.002
				c-0.032,0.004-0.065,0.01-0.096,0.012c-0.032,0-0.063,0.008-0.096,0.01C55.29,68.627,55.257,68.631,55.227,68.631 M52.783,68.139
				h-0.014c-0.005,0-0.01,0-0.017,0l-0.015,0.002c-0.004,0-0.009,0-0.016,0l1.91,0.387c0.036-0.004,0.071-0.006,0.108-0.006
				c0.037-0.01,0.075-0.01,0.11-0.014c0.035,0,0.074-0.006,0.111-0.008l0.11-0.006c0.022,0,0.044-0.006,0.067-0.006
				s0.044,0,0.064-0.004c0.024-0.004,0.047-0.004,0.065-0.006c0.023-0.006,0.043-0.006,0.065-0.01c0.01,0,0.022,0,0.033,0
				c0.008,0,0.02,0,0.031,0c0.008,0,0.018,0,0.027,0c0.01-0.006,0.021-0.006,0.031-0.006l-1.904-0.379
				c-0.03,0.002-0.062,0.006-0.094,0.006c-0.031,0.004-0.064,0.004-0.095,0.006l-0.097,0.006l-0.096,0.01
				c-0.032,0.002-0.064,0.002-0.096,0.006s-0.064,0.004-0.098,0.01l-0.096,0.002C52.847,68.133,52.815,68.139,52.783,68.139
				 M51.653,67.926l0.552,0.113c0.037-0.004,0.071-0.004,0.108-0.008c0.04-0.006,0.075-0.008,0.111-0.012
				c0.036,0,0.073-0.002,0.112-0.002c0.036-0.006,0.072-0.01,0.108-0.01c0.024,0,0.046-0.004,0.067-0.004
				c0.024-0.006,0.047-0.006,0.068-0.008c0.024,0,0.045,0,0.067,0c0.023-0.004,0.043-0.004,0.066-0.004
				c0.009,0,0.021-0.006,0.03-0.006c0.01,0,0.02,0,0.033,0c0.008,0,0.019,0,0.029-0.002c0.011,0,0.02,0,0.031,0l-0.549-0.113
				L51.653,67.926z"/>
			<path fill="#FFFFFF" d="M54.137,68.729l-0.772,0.074l0,0l0.626,0.117l0.753-0.074L54.137,68.729z M51.604,68.233l-0.861,0.072
				l0,0l2.048,0.389l0.789-0.076L51.604,68.233z M50.496,68.018l-0.893,0.068l0.586,0.113h0.004l0.875-0.072L50.496,68.018z"/>
			<path fill="#FFFFFF" d="M52.644,68.008c0.024,0,0.046-0.004,0.067-0.004c0.024-0.006,0.047-0.006,0.068-0.008
				c0.024,0,0.045,0,0.067-0.004c0.023,0,0.043,0,0.066,0c0.009,0,0.021-0.006,0.03-0.006c0.01,0,0.02,0,0.033,0
				c0.008,0,0.019,0,0.029-0.002c0.011,0,0.02,0,0.031,0c0.01-0.008,0.021-0.008,0.034-0.008c0.01,0,0.022-0.002,0.03-0.002
				c0.014,0,0.023-0.004,0.035-0.004c0.011,0,0.023-0.002,0.031-0.002l0.948-0.064l0.786-0.055l1.032-0.072l0.511,0.104
				l-1.029,0.068l-0.786,0.059l-0.945,0.064c-0.01,0.002-0.021,0.002-0.031,0.002c-0.011,0.004-0.022,0.004-0.034,0.004
				l-0.033,0.002c-0.009,0-0.021,0.004-0.032,0.004c-0.03,0.002-0.062,0.006-0.094,0.006c-0.031,0.004-0.065,0.004-0.095,0.006
				l-0.097,0.006l-0.096,0.01c-0.032,0.002-0.064,0.002-0.096,0.006s-0.064,0.004-0.098,0.01l-0.096,0.002
				c-0.033,0.004-0.064,0.01-0.097,0.01h-0.014c-0.005,0-0.011,0-0.017,0l-0.013,0.002c-0.007,0-0.011,0-0.018,0
				c-0.041,0.008-0.079,0.008-0.12,0.01c-0.041,0.004-0.082,0.004-0.122,0.006c-0.04,0.006-0.081,0.006-0.122,0.016
				c-0.041,0.004-0.082,0.004-0.124,0.006l-0.629,0.055l-0.86,0.072L50.193,68.2l0.875-0.072l0.644-0.053
				c0.041-0.006,0.083-0.006,0.125-0.008c0.039-0.008,0.083-0.01,0.123-0.01c0.042-0.004,0.083-0.01,0.124-0.012
				c0.041-0.004,0.08-0.004,0.123-0.006c0.037,0,0.071-0.008,0.109-0.008c0.037-0.006,0.074-0.008,0.109-0.012
				c0.036,0,0.073-0.002,0.112-0.002C52.571,68.012,52.606,68.008,52.644,68.008"/>
			<path fill="#FFFFFF" d="M55.07,68.495c0.022,0,0.044-0.006,0.065-0.006c0.023,0,0.046,0,0.066-0.004
				c0.024-0.004,0.047-0.004,0.065-0.006c0.023-0.006,0.043-0.006,0.065-0.01c0.01,0,0.021,0,0.033,0c0.008,0,0.02,0,0.031,0
				c0.008,0,0.018,0,0.027-0.006c0.012,0,0.021,0,0.031,0c0.008,0,0.021-0.002,0.031-0.002c0.013,0,0.021,0,0.034,0
				c0.01,0,0.021-0.008,0.032-0.008c0.012-0.002,0.021-0.002,0.033-0.002l0.938-0.074l0.781-0.061l1.021-0.074l0.53,0.102
				l-1.019,0.08l-0.777,0.064l-0.936,0.072c-0.011,0-0.022,0-0.033,0.002c-0.011,0-0.022,0-0.033,0
				c-0.011,0.004-0.021,0.004-0.032,0.008c-0.01,0-0.021,0-0.032,0c-0.031,0.002-0.062,0.002-0.094,0.012
				c-0.032,0-0.063,0.002-0.095,0.002c-0.033,0.006-0.064,0.006-0.097,0.01c-0.029,0.004-0.065,0.01-0.096,0.01
				c-0.032,0.002-0.065,0.002-0.096,0.002c-0.034,0.004-0.067,0.01-0.098,0.012c-0.032,0-0.063,0.008-0.096,0.01
				c-0.031,0-0.063,0.004-0.094,0.004c-0.004,0-0.009,0.002-0.014,0.002c-0.006,0-0.011,0-0.014,0c-0.005,0-0.01,0-0.014,0
				c-0.005,0-0.012,0-0.015,0c-0.041,0.004-0.081,0.01-0.12,0.012c-0.039,0.008-0.078,0.01-0.117,0.014
				c-0.04,0-0.079,0.002-0.116,0.008c-0.04,0.008-0.078,0.008-0.115,0.01l-0.565,0.053l-0.772,0.074l-0.573-0.111l0,0l0.789-0.074
				l0.581-0.055c0.038,0,0.077-0.006,0.116-0.008c0.038,0,0.077-0.006,0.117-0.006c0.037-0.006,0.077-0.006,0.115-0.014
				c0.041-0.002,0.081-0.006,0.122-0.008c0.036-0.004,0.071-0.004,0.108-0.006c0.037-0.01,0.075-0.01,0.11-0.014
				c0.035,0,0.074-0.006,0.111-0.006L55.07,68.495z"/>
			<path fill="#FFFFFF" d="M52.314,68.905c-0.026,0-0.052,0.002-0.078,0.008c-0.024,0-0.051,0.008-0.076,0.008
				c-0.024,0.002-0.048,0.006-0.074,0.008c-0.026,0.006-0.048,0.01-0.074,0.014l-0.416,0.055l0.675,0.117l0.689-0.09L52.314,68.905z
				 M49.582,68.407c-0.033,0-0.062,0.006-0.092,0.008c-0.027,0.004-0.056,0.006-0.085,0.01c-0.028,0-0.058,0.002-0.083,0.006
				c-0.029,0.006-0.057,0.012-0.084,0.012L48.769,68.5l2.208,0.385l0.43-0.055c0.026,0,0.051-0.006,0.074-0.012
				c0.024-0.002,0.051-0.002,0.076-0.006c0.027-0.002,0.052-0.01,0.078-0.01c0.026-0.006,0.055-0.008,0.081-0.012L49.582,68.407z
				 M48.381,68.184l-0.85,0.098l0.639,0.109l0.485-0.055c0.026-0.004,0.054-0.004,0.081-0.006c0.028-0.004,0.057-0.014,0.086-0.014
				c0.028-0.002,0.058-0.006,0.087-0.008c0.03,0,0.06-0.004,0.089-0.006L48.381,68.184z"/>
			<path fill="#FFFFFF" d="M50.607,69.12c-0.065,0.01-0.128,0.02-0.191,0.021c-0.064,0.012-0.127,0.02-0.187,0.027
				c-0.06,0.01-0.122,0.02-0.183,0.027c-0.058,0.01-0.117,0.016-0.176,0.027l0.714,0.115c0.057-0.008,0.116-0.018,0.178-0.027
				c0.059-0.012,0.12-0.014,0.183-0.023c0.061-0.01,0.125-0.021,0.185-0.023c0.061-0.01,0.122-0.014,0.182-0.02L50.607,69.12z
				 M47.656,68.627c-0.075,0.006-0.146,0.016-0.216,0.025c-0.071,0.006-0.141,0.014-0.208,0.023
				c-0.073,0.004-0.138,0.016-0.207,0.027c-0.068,0.006-0.135,0.016-0.202,0.025l2.38,0.385c0.059-0.012,0.122-0.021,0.183-0.027
				s0.125-0.016,0.186-0.023c0.064-0.01,0.126-0.016,0.192-0.025c0.065-0.012,0.13-0.014,0.197-0.027L47.656,68.627z M46.365,68.407
				c-0.071,0.014-0.147,0.018-0.221,0.027c-0.072,0.008-0.148,0.018-0.223,0.027c-0.077,0.008-0.151,0.012-0.227,0.023
				c-0.075,0.01-0.15,0.018-0.224,0.027l0.703,0.115c0.069-0.012,0.138-0.021,0.209-0.029c0.067-0.014,0.138-0.016,0.209-0.027
				c0.071-0.01,0.143-0.016,0.215-0.025c0.073-0.01,0.148-0.018,0.22-0.023L46.365,68.407z"/>
			<path fill="#FFFFFF" d="M48.958,69.379c-0.055,0.006-0.114,0.014-0.169,0.027c-0.058,0.012-0.117,0.021-0.172,0.029
				c-0.06,0.01-0.119,0.021-0.179,0.031c-0.057,0.012-0.117,0.021-0.176,0.033h-0.003l0,0l0,0l0.774,0.113l0.682-0.119
				L48.958,69.379z M45.782,68.885c-0.064,0.01-0.131,0.021-0.198,0.035c-0.065,0.008-0.13,0.018-0.198,0.029
				c-0.068,0.01-0.134,0.021-0.203,0.027c-0.067,0.012-0.137,0.025-0.204,0.033h-0.002l0,0l0,0l2.562,0.381
				c0.062-0.01,0.124-0.021,0.186-0.031c0.061-0.012,0.123-0.018,0.18-0.029c0.061-0.01,0.12-0.02,0.18-0.033
				c0.06-0.006,0.12-0.02,0.178-0.031L45.782,68.885z M44.381,68.674l-0.848,0.123l0.745,0.109l0,0c0,0,0,0,0-0.002l0,0l0,0
				c0.072-0.01,0.14-0.02,0.21-0.031c0.071-0.008,0.141-0.021,0.208-0.029c0.068-0.01,0.137-0.021,0.204-0.027
				c0.068-0.014,0.135-0.025,0.202-0.037L44.381,68.674z"/>
			<path fill="#FFFFFF" d="M50.193,68.2l0.552,0.105l-0.001,0.004l-0.76,0.061c-0.035,0-0.07,0.006-0.103,0.008
				c-0.035,0-0.07,0.008-0.102,0.008c-0.036,0.002-0.068,0.006-0.102,0.012c-0.032,0.002-0.067,0.006-0.095,0.01
				c-0.033,0-0.062,0.006-0.092,0.008c-0.027,0.004-0.056,0.006-0.085,0.01c-0.028,0-0.056,0.002-0.083,0.006
				c-0.029,0.006-0.057,0.012-0.084,0.012L48.769,68.5L47.8,68.606c-0.01,0.004-0.024,0.004-0.036,0.01
				c-0.013,0-0.025,0.002-0.037,0.002c-0.014,0-0.024,0-0.036,0.008c-0.013,0-0.025,0.002-0.036,0.002
				c-0.075,0.006-0.146,0.016-0.216,0.025c-0.071,0.006-0.141,0.014-0.208,0.023c-0.073,0.004-0.138,0.016-0.207,0.027
				c-0.068,0.006-0.135,0.016-0.202,0.025c-0.089,0.012-0.176,0.027-0.264,0.039s-0.175,0.023-0.261,0.039
				c-0.086,0.012-0.174,0.023-0.259,0.037c-0.087,0.014-0.172,0.027-0.258,0.041c-0.064,0.01-0.131,0.021-0.198,0.035
				c-0.065,0.008-0.13,0.018-0.198,0.029c-0.068,0.01-0.134,0.021-0.203,0.027c-0.067,0.012-0.137,0.025-0.206,0.033l-0.698-0.105
				c0.072-0.01,0.143-0.02,0.212-0.031c0.069-0.008,0.138-0.021,0.205-0.029c0.068-0.01,0.137-0.021,0.204-0.027
				c0.068-0.014,0.135-0.025,0.202-0.037c0.087-0.01,0.18-0.023,0.267-0.039c0.088-0.012,0.179-0.027,0.267-0.039
				c0.087-0.014,0.177-0.025,0.269-0.041c0.089-0.008,0.18-0.027,0.27-0.033c0.069-0.012,0.138-0.021,0.209-0.029
				c0.067-0.014,0.138-0.016,0.209-0.027c0.071-0.01,0.143-0.016,0.215-0.025c0.073-0.01,0.148-0.018,0.22-0.023
				c0.013,0,0.024,0,0.037-0.004c0.015-0.006,0.026-0.006,0.04-0.006c0.012,0,0.022-0.004,0.035-0.004
				c0.013,0,0.025-0.002,0.037-0.002l0.994-0.115l0.483-0.055c0.027-0.004,0.055-0.004,0.083-0.006
				c0.028-0.004,0.057-0.014,0.086-0.014c0.028-0.002,0.058-0.006,0.087-0.008c0.03,0,0.06-0.004,0.089-0.006
				c0.035-0.01,0.066-0.014,0.102-0.016c0.033-0.004,0.07-0.004,0.103-0.006c0.034,0,0.07-0.006,0.104-0.01
				c0.036,0,0.069-0.006,0.105-0.01l0.776-0.062H50.193z"/>
			<path fill="#FFFFFF" d="M52.791,68.692l0.573,0.111l0,0l-0.689,0.064c-0.031,0-0.062,0.004-0.092,0.006
				c-0.03,0.006-0.06,0.006-0.089,0.01c-0.031,0.002-0.062,0.006-0.093,0.01c-0.027,0-0.057,0.002-0.087,0.012
				c-0.026,0-0.052,0.002-0.078,0.008c-0.024,0-0.051,0.008-0.076,0.008c-0.024,0.002-0.048,0.006-0.074,0.008
				c-0.026,0.006-0.048,0.01-0.074,0.014l-0.416,0.055l-0.86,0.105c-0.011,0.006-0.023,0.006-0.034,0.006
				c-0.01,0-0.022,0.004-0.032,0.006c-0.011,0-0.02,0-0.033,0.004c-0.008,0-0.021,0.002-0.03,0.002
				c-0.065,0.01-0.128,0.02-0.191,0.021c-0.064,0.012-0.125,0.02-0.187,0.027c-0.062,0.01-0.122,0.02-0.183,0.027
				c-0.058,0.01-0.118,0.016-0.176,0.027c-0.078,0.014-0.154,0.027-0.232,0.037c-0.077,0.006-0.151,0.023-0.227,0.037
				c-0.073,0.014-0.151,0.027-0.228,0.041c-0.073,0.01-0.149,0.025-0.226,0.041c-0.055,0.006-0.114,0.014-0.169,0.027
				c-0.058,0.012-0.117,0.021-0.173,0.029c-0.059,0.01-0.117,0.021-0.177,0.027c-0.057,0.016-0.117,0.025-0.176,0.037l-0.726-0.109
				h0.001l0,0c0.062-0.01,0.124-0.021,0.186-0.031c0.062-0.012,0.123-0.018,0.18-0.029c0.062-0.01,0.12-0.02,0.18-0.033
				c0.06-0.006,0.12-0.02,0.178-0.031c0.078-0.01,0.155-0.021,0.233-0.037c0.078-0.014,0.155-0.023,0.234-0.039
				c0.078-0.012,0.155-0.027,0.234-0.037c0.079-0.014,0.16-0.029,0.24-0.039c0.059-0.012,0.122-0.021,0.183-0.027
				s0.125-0.016,0.186-0.023c0.064-0.01,0.128-0.016,0.192-0.025c0.065-0.012,0.13-0.014,0.197-0.027l0.031-0.002
				c0.014-0.004,0.022-0.004,0.036-0.006c0.009,0,0.022,0,0.032,0l0.036-0.004l0.88-0.113l0.43-0.055
				c0.026-0.006,0.051-0.006,0.074-0.012c0.024-0.002,0.051-0.002,0.076-0.006c0.027-0.002,0.052-0.01,0.078-0.01
				c0.026-0.006,0.055-0.008,0.081-0.012c0.03,0,0.059-0.006,0.09-0.006c0.03-0.006,0.063-0.012,0.093-0.012
				c0.03-0.004,0.061-0.004,0.094-0.01c0.032,0,0.065,0,0.096-0.006L52.791,68.692z"/>
			<path fill="#FFFFFF" d="M47.35,69.668l-0.259,0.061l-0.369,0.082l0.833,0.117l0.6-0.148L47.35,69.668z M43.938,69.19
				l-0.302,0.061l-0.432,0.088l2.748,0.371l0.384-0.088l0.267-0.057L43.938,69.19z M42.427,68.977l-0.777,0.152l0.801,0.107
				l0.447-0.09l0.31-0.061L42.427,68.977z"/>
			<path fill="#FFFFFF" d="M45.85,70.01c-0.056,0.01-0.108,0.025-0.161,0.041c-0.05,0.008-0.102,0.023-0.15,0.035
				c-0.045,0.016-0.094,0.031-0.142,0.043c-0.045,0.016-0.09,0.027-0.138,0.043l0.885,0.109c0.047-0.016,0.092-0.027,0.137-0.043
				c0.043-0.012,0.087-0.027,0.132-0.043c0.045-0.012,0.094-0.023,0.144-0.039c0.048-0.012,0.102-0.023,0.162-0.035L45.85,70.01z
				 M42.183,69.545c-0.063,0.006-0.125,0.025-0.187,0.041c-0.06,0.012-0.12,0.023-0.175,0.035c-0.06,0.021-0.117,0.033-0.17,0.047
				c-0.055,0.014-0.11,0.027-0.164,0.045l2.946,0.359c0.049-0.014,0.096-0.031,0.145-0.043c0.048-0.012,0.096-0.027,0.148-0.047
				c0.048-0.012,0.102-0.023,0.153-0.039c0.054-0.008,0.111-0.023,0.169-0.033L42.183,69.545z M40.569,69.338
				c-0.074,0.01-0.143,0.025-0.208,0.041c-0.067,0.012-0.127,0.027-0.19,0.041c-0.061,0.014-0.121,0.025-0.18,0.043
				c-0.058,0.02-0.118,0.031-0.18,0.047l0.868,0.109c0.057-0.021,0.113-0.031,0.171-0.049c0.055-0.02,0.113-0.031,0.173-0.047
				c0.058-0.014,0.118-0.023,0.179-0.041c0.063-0.01,0.129-0.027,0.196-0.041L40.569,69.338z"/>
			<path fill="#FFFFFF" d="M44.493,70.401l-0.597,0.18v0.002l0,0l0.942,0.102l0.575-0.178L44.493,70.401z M40.571,69.956
				l-0.706,0.189l0,0h-0.001l0,0l3.148,0.344l0.622-0.186L40.571,69.956z M38.826,69.752l-0.757,0.191l0.929,0.107l0.735-0.191
				L38.826,69.752z"/>
			<path fill="#FFFFFF" d="M44.279,68.905l0.7,0.105h-0.002l0,0l0,0c-0.058,0.014-0.118,0.016-0.175,0.027
				c-0.061,0.01-0.12,0.02-0.178,0.027c-0.06,0.01-0.118,0.02-0.177,0.027c-0.061,0.01-0.12,0.021-0.175,0.031l-0.334,0.066
				l-0.302,0.061l-0.432,0.088l-0.89,0.18c-0.01,0.004-0.022,0.004-0.032,0.006c-0.011,0-0.021,0-0.033,0.004
				c-0.012,0.006-0.022,0.006-0.031,0.012c-0.012,0-0.022,0-0.034,0.006c-0.063,0.006-0.125,0.025-0.187,0.041
				c-0.06,0.012-0.12,0.023-0.175,0.041c-0.06,0.016-0.115,0.027-0.17,0.041c-0.055,0.014-0.11,0.027-0.164,0.045
				c-0.033,0.01-0.064,0.016-0.097,0.027c-0.033,0.01-0.065,0.016-0.098,0.027c-0.029,0.01-0.064,0.012-0.097,0.021
				c-0.033,0.012-0.067,0.021-0.102,0.027l-0.522,0.139l-0.706,0.189l-0.867-0.094h0l0.735-0.191l0.538-0.137
				c0.036-0.01,0.071-0.02,0.104-0.027c0.035-0.01,0.069-0.02,0.104-0.027s0.067-0.02,0.101-0.025
				c0.032-0.01,0.066-0.021,0.099-0.023c0.057-0.021,0.113-0.031,0.169-0.049c0.057-0.02,0.116-0.031,0.176-0.047
				c0.058-0.014,0.118-0.023,0.179-0.041c0.063-0.01,0.127-0.027,0.196-0.041c0.01-0.002,0.021-0.006,0.033-0.006
				c0.011-0.002,0.023-0.006,0.034-0.006c0.012,0,0.023-0.002,0.035-0.01c0.013,0,0.025-0.002,0.037-0.002l0.914-0.182l0.447-0.09
				l0.31-0.061l0.343-0.062c0.06-0.016,0.119-0.021,0.18-0.035c0.06-0.008,0.123-0.014,0.182-0.023
				c0.062-0.012,0.124-0.018,0.183-0.031c0.06-0.008,0.123-0.014,0.182-0.027h0.001C44.278,68.907,44.278,68.907,44.279,68.905
				L44.279,68.905L44.279,68.905z"/>
			<path fill="#FFFFFF" d="M47.537,69.391l0.726,0.109l0,0h-0.003l0,0h-0.001c-0.05,0.006-0.103,0.016-0.154,0.023
				c-0.054,0.01-0.105,0.021-0.159,0.025c-0.053,0.012-0.106,0.021-0.156,0.027c-0.054,0.012-0.105,0.021-0.154,0.029l-0.286,0.062
				l-0.259,0.061l-0.369,0.082l-0.757,0.172c-0.007,0.008-0.019,0.008-0.029,0.008c-0.008,0.002-0.02,0.008-0.029,0.008
				c-0.01,0.004-0.018,0.004-0.027,0.004c-0.01,0.002-0.02,0.006-0.031,0.008c-0.056,0.01-0.108,0.025-0.161,0.041
				c-0.05,0.008-0.102,0.023-0.15,0.035c-0.045,0.016-0.094,0.031-0.142,0.043c-0.045,0.016-0.09,0.027-0.138,0.043
				c-0.024,0.012-0.052,0.016-0.08,0.027c-0.027,0.01-0.056,0.016-0.083,0.021c-0.027,0.01-0.054,0.018-0.083,0.029
				c-0.028,0.008-0.057,0.014-0.086,0.02l-0.434,0.131l-0.597,0.182l-0.884-0.094l0.624-0.186l0.454-0.131
				c0.03-0.004,0.06-0.016,0.088-0.023c0.03-0.01,0.059-0.016,0.089-0.027c0.026-0.004,0.055-0.02,0.084-0.025
				c0.027-0.006,0.055-0.016,0.083-0.023c0.049-0.014,0.096-0.031,0.145-0.043c0.048-0.012,0.096-0.027,0.148-0.047
				c0.048-0.012,0.102-0.023,0.153-0.039c0.054-0.008,0.111-0.023,0.169-0.033c0.009-0.006,0.02-0.006,0.029-0.006
				c0.009-0.006,0.02-0.006,0.03-0.01c0.008,0,0.02-0.006,0.03-0.008c0.009,0,0.021-0.004,0.03-0.004l0.784-0.174l0.384-0.088
				l0.267-0.057l0.296-0.064c0.051-0.012,0.105-0.018,0.158-0.027s0.105-0.018,0.161-0.031c0.055-0.008,0.108-0.014,0.162-0.023
				C47.433,69.407,47.486,69.401,47.537,69.391"/>
			<path fill="#FFFFFF" d="M43.229,70.842c-0.042,0.02-0.085,0.035-0.126,0.055c-0.044,0.018-0.085,0.029-0.127,0.047
				c-0.041,0.021-0.083,0.037-0.125,0.053c-0.041,0.018-0.083,0.037-0.125,0.057l1.002,0.096l0.479-0.205L43.229,70.842z
				 M39.04,70.422c-0.052,0.014-0.102,0.033-0.154,0.051c-0.054,0.018-0.104,0.039-0.156,0.055
				c-0.053,0.021-0.104,0.043-0.156,0.055c-0.053,0.02-0.104,0.039-0.157,0.055l3.37,0.32l0.133-0.053
				c0.042-0.016,0.088-0.033,0.133-0.051c0.041-0.016,0.086-0.037,0.129-0.049l0.13-0.053L39.04,70.422z M37.168,70.231l-0.68,0.225
				l1.003,0.094c0.051-0.018,0.105-0.037,0.16-0.055c0.053-0.021,0.107-0.039,0.161-0.059c0.056-0.018,0.109-0.035,0.161-0.051
				c0.056-0.021,0.109-0.037,0.164-0.059L37.168,70.231z"/>
			<path fill="#FFFFFF" d="M42.079,71.34l-0.404,0.234l1.066,0.088l0.372-0.23L42.079,71.34z M37.615,70.944l-0.516,0.254
				l3.581,0.291l0.426-0.236L37.615,70.944z M35.614,70.768l-0.582,0.258l1.069,0.086l0.55-0.25L35.614,70.768z"/>
			<path fill="#FFFFFF" d="M41.114,71.897c-0.035,0.014-0.068,0.035-0.103,0.057c-0.033,0.025-0.067,0.047-0.095,0.068
				c-0.029,0.023-0.059,0.041-0.083,0.062c-0.026,0.021-0.047,0.043-0.067,0.066l1.125,0.08c0.021-0.023,0.04-0.045,0.063-0.066
				c0.021-0.025,0.045-0.047,0.069-0.068c0.026-0.018,0.055-0.039,0.086-0.061c0.031-0.021,0.065-0.039,0.106-0.057L41.114,71.897z
				 M36.374,71.542c-0.049,0.02-0.093,0.045-0.135,0.068c-0.043,0.021-0.084,0.043-0.127,0.064C36.072,71.7,36.034,71.723,36,71.747
				c-0.036,0.025-0.068,0.049-0.096,0.07l3.812,0.262h0c0.019-0.021,0.045-0.043,0.072-0.066c0.029-0.025,0.059-0.045,0.09-0.064
				c0.032-0.023,0.063-0.045,0.101-0.066c0.034-0.021,0.071-0.039,0.109-0.064L36.374,71.542z M34.232,71.379
				c-0.056,0.025-0.108,0.049-0.157,0.072c-0.047,0.021-0.093,0.047-0.135,0.07c-0.042,0.025-0.083,0.047-0.121,0.074
				c-0.041,0.02-0.079,0.045-0.12,0.072l1.142,0.078l0.001-0.002c0.029-0.025,0.065-0.049,0.103-0.07
				c0.037-0.031,0.075-0.045,0.119-0.072c0.041-0.021,0.087-0.043,0.133-0.068c0.046-0.027,0.092-0.045,0.14-0.072L34.232,71.379z"
				/>
			<path fill="#FFFFFF" d="M38.998,70.051l0.867,0.094l0,0h-0.001l0,0c-0.068,0.023-0.135,0.043-0.204,0.066
				c-0.069,0.02-0.137,0.047-0.207,0.07c-0.067,0.021-0.136,0.045-0.204,0.066l-0.209,0.074c-0.052,0.014-0.102,0.033-0.155,0.051
				c-0.053,0.021-0.103,0.039-0.155,0.055c-0.05,0.021-0.104,0.043-0.156,0.055c-0.053,0.02-0.104,0.039-0.157,0.055
				c-0.059,0.021-0.12,0.047-0.179,0.066c-0.06,0.025-0.121,0.043-0.181,0.064c-0.06,0.021-0.118,0.045-0.178,0.07
				c-0.059,0.021-0.119,0.045-0.177,0.066l-0.088,0.043l-0.516,0.25l-0.31,0.148c-0.035,0.016-0.068,0.033-0.105,0.045
				c-0.033,0.02-0.069,0.037-0.102,0.053c-0.036,0.016-0.071,0.029-0.105,0.045c-0.036,0.016-0.07,0.033-0.103,0.053
				c-0.049,0.02-0.093,0.045-0.135,0.068c-0.043,0.021-0.084,0.043-0.127,0.064C36.072,71.7,36.034,71.723,36,71.747
				c-0.035,0.025-0.068,0.049-0.095,0.07l-1.062-0.072c0.029-0.025,0.065-0.049,0.103-0.07c0.037-0.031,0.075-0.045,0.119-0.072
				c0.041-0.021,0.087-0.043,0.133-0.068c0.046-0.027,0.092-0.045,0.14-0.072c0.036-0.012,0.073-0.029,0.108-0.049l0.109-0.049
				c0.036-0.018,0.075-0.033,0.11-0.049c0.035-0.018,0.07-0.033,0.103-0.051l0.334-0.152l0.55-0.25l0.093-0.045
				c0.059-0.018,0.12-0.039,0.182-0.07c0.064-0.018,0.126-0.043,0.186-0.062c0.063-0.025,0.125-0.047,0.191-0.07
				c0.06-0.016,0.125-0.039,0.189-0.064c0.052-0.016,0.105-0.037,0.16-0.055c0.053-0.021,0.107-0.039,0.161-0.059
				c0.056-0.018,0.109-0.035,0.161-0.051c0.056-0.021,0.109-0.037,0.164-0.059c0.072-0.023,0.144-0.045,0.216-0.068l0.218-0.07
				c0.069-0.025,0.141-0.047,0.214-0.07C38.854,70.094,38.927,70.073,38.998,70.051"/>
			<path fill="#FFFFFF" d="M43.012,70.489l0.884,0.092v0.002l0,0l0,0c-0.057,0.02-0.111,0.043-0.167,0.064
				c-0.055,0.021-0.111,0.043-0.166,0.064c-0.056,0.023-0.113,0.045-0.168,0.068c-0.056,0.021-0.111,0.041-0.166,0.062
				c-0.042,0.02-0.084,0.035-0.127,0.055c-0.042,0.018-0.083,0.029-0.125,0.051c-0.041,0.018-0.083,0.033-0.125,0.049
				c-0.041,0.018-0.083,0.037-0.125,0.057c-0.049,0.016-0.097,0.037-0.147,0.059c-0.049,0.018-0.097,0.043-0.145,0.061
				c-0.048,0.025-0.097,0.043-0.146,0.064c-0.048,0.023-0.094,0.043-0.144,0.061l-0.064,0.043l-0.404,0.234l-0.241,0.139
				c-0.027,0.014-0.053,0.031-0.079,0.043c-0.026,0.016-0.053,0.031-0.08,0.043c-0.028,0.018-0.055,0.037-0.081,0.051
				c-0.026,0.014-0.053,0.027-0.081,0.047c-0.035,0.014-0.068,0.035-0.103,0.057c-0.033,0.025-0.067,0.047-0.095,0.068
				c-0.029,0.018-0.059,0.041-0.083,0.062s-0.047,0.043-0.064,0.066h-0.002l0,0l0,0l-1.051-0.072
				c0.019-0.021,0.045-0.043,0.072-0.066c0.029-0.025,0.059-0.045,0.09-0.064c0.032-0.023,0.063-0.045,0.101-0.066
				c0.034-0.021,0.071-0.039,0.109-0.064c0.028-0.018,0.056-0.033,0.086-0.045c0.026-0.016,0.057-0.031,0.084-0.049
				c0.029-0.012,0.057-0.033,0.084-0.045c0.029-0.016,0.055-0.035,0.081-0.047l0.256-0.143l0.426-0.236l0.071-0.037
				c0.049-0.018,0.101-0.043,0.15-0.064c0.053-0.023,0.102-0.041,0.153-0.066c0.051-0.021,0.101-0.039,0.154-0.064
				c0.05-0.021,0.102-0.039,0.153-0.062l0.133-0.049c0.042-0.02,0.088-0.037,0.133-0.055c0.041-0.016,0.086-0.037,0.129-0.049
				l0.13-0.053c0.06-0.021,0.12-0.049,0.176-0.068c0.061-0.025,0.119-0.047,0.176-0.07c0.059-0.016,0.117-0.039,0.175-0.064
				C42.898,70.528,42.956,70.506,43.012,70.489"/>
			<path fill="#FFFFFF" d="M40.361,72.514l-0.13,0.117c-0.014,0.014-0.028,0.025-0.042,0.041c-0.015,0.012-0.032,0.027-0.048,0.041
				c-0.015,0.016-0.033,0.025-0.048,0.043c-0.016,0.01-0.03,0.027-0.043,0.041l1.18,0.066l0.29-0.277L40.361,72.514z M35.339,72.213
				l-0.181,0.127c-0.021,0.012-0.042,0.027-0.063,0.043c-0.024,0.018-0.046,0.027-0.068,0.045c-0.02,0.016-0.042,0.031-0.064,0.047
				c-0.021,0.014-0.043,0.027-0.064,0.045l4.039,0.215c0.017-0.014,0.032-0.029,0.049-0.039c0.018-0.016,0.037-0.027,0.053-0.045
				c0.017-0.012,0.035-0.027,0.052-0.039c0.017-0.016,0.035-0.027,0.05-0.041l0.139-0.121L35.339,72.213z M33.06,72.073
				l-0.509,0.318l1.221,0.068c0.023-0.016,0.047-0.031,0.07-0.049c0.023-0.016,0.046-0.027,0.071-0.047
				c0.023-0.014,0.048-0.029,0.069-0.041c0.022-0.02,0.043-0.031,0.065-0.047l0.195-0.133L33.06,72.073z"/>
			<path fill="#FFFFFF" d="M39.795,73.194l-0.177,0.316l1.245,0.047l0.148-0.305L39.795,73.194z M34.49,72.958l-0.301,0.344
				l4.267,0.168l0.197-0.32L34.49,72.958z M32.058,72.844l-0.355,0.359l1.292,0.053l0.328-0.357L32.058,72.844z"/>
			<path fill="#FFFFFF" d="M39.432,73.95c-0.001,0.029-0.002,0.057-0.002,0.084c0,0.031,0,0.059,0,0.092
				c0,0.023,0,0.055-0.005,0.084c-0.001,0.027-0.004,0.059-0.01,0.086l1.298,0.033l-0.001-0.34L39.432,73.95z M33.84,73.784
				c-0.013,0.031-0.021,0.062-0.032,0.092c-0.007,0.033-0.017,0.066-0.026,0.098c-0.01,0.033-0.019,0.066-0.031,0.094
				c-0.012,0.033-0.026,0.068-0.04,0.098l4.488,0.107c0.009-0.035,0.015-0.062,0.018-0.092c0.005-0.031,0.009-0.061,0.009-0.092
				c0-0.027,0-0.055,0.002-0.088c0.002-0.027,0.004-0.059,0.007-0.088L33.84,73.784z M31.268,73.709l-0.185,0.398l1.361,0.029
				c0.018-0.033,0.033-0.07,0.047-0.098c0.013-0.035,0.026-0.066,0.038-0.098c0.011-0.033,0.022-0.066,0.034-0.096
				c0.012-0.035,0.023-0.064,0.037-0.098L31.268,73.709z"/>
			<path fill="#FFFFFF" d="M34.842,71.745l1.062,0.072l-0.565,0.396l-0.181,0.127c-0.021,0.012-0.042,0.027-0.063,0.043
				c-0.024,0.012-0.042,0.027-0.065,0.045c-0.022,0.016-0.044,0.031-0.067,0.047c-0.021,0.014-0.043,0.027-0.064,0.045
				c-0.011,0.006-0.021,0.016-0.03,0.021c-0.01,0.008-0.019,0.018-0.029,0.023c-0.011,0.01-0.021,0.016-0.029,0.025
				c-0.009,0.006-0.018,0.008-0.026,0.021l-0.245,0.287l-0.051,0.059l-0.301,0.344l-0.182,0.207c-0.021,0.023-0.04,0.045-0.056,0.07
				c-0.019,0.021-0.034,0.045-0.048,0.066c-0.012,0.023-0.023,0.043-0.035,0.07c-0.009,0.021-0.019,0.045-0.027,0.068
				c-0.013,0.031-0.021,0.062-0.032,0.092c-0.007,0.033-0.017,0.066-0.027,0.098c-0.008,0.033-0.018,0.066-0.029,0.094
				c-0.013,0.033-0.027,0.068-0.041,0.098l0,0l-1.268-0.027l0,0h0.001l0,0c0.018-0.033,0.033-0.07,0.047-0.098
				c0.013-0.035,0.026-0.066,0.038-0.098c0.011-0.033,0.022-0.066,0.034-0.096c0.011-0.035,0.023-0.064,0.037-0.098
				c0.011-0.027,0.022-0.049,0.035-0.074c0.011-0.027,0.026-0.045,0.039-0.066c0.017-0.023,0.035-0.051,0.055-0.072
				c0.019-0.021,0.041-0.043,0.065-0.066l0.201-0.213l0.328-0.357l0.054-0.055l0.271-0.295c0.008-0.002,0.018-0.014,0.028-0.02
				c0.009-0.008,0.018-0.016,0.03-0.025c0.009-0.006,0.022-0.016,0.033-0.023c0.011-0.006,0.021-0.016,0.032-0.021
				c0.023-0.016,0.047-0.031,0.07-0.049c0.023-0.016,0.046-0.027,0.071-0.047c0.022-0.014,0.048-0.029,0.069-0.045
				c0.021-0.016,0.045-0.027,0.065-0.043l0.195-0.133l0.599-0.398H34.842z"/>
			<path fill="#FFFFFF" d="M39.716,72.079l1.051,0.072l-0.406,0.363l-0.13,0.117c-0.014,0.014-0.028,0.025-0.042,0.041
				c-0.015,0.012-0.032,0.027-0.048,0.041c-0.015,0.016-0.033,0.025-0.048,0.043c-0.016,0.01-0.03,0.027-0.043,0.041
				c-0.009,0.006-0.016,0.012-0.023,0.02c-0.005,0.008-0.014,0.016-0.019,0.02c-0.006,0.008-0.011,0.016-0.018,0.027
				c-0.004,0.006-0.009,0.012-0.014,0.018l-0.153,0.268l-0.028,0.045l-0.177,0.316L39.512,73.7
				c-0.016,0.021-0.025,0.043-0.036,0.064c-0.01,0.02-0.017,0.039-0.023,0.061c-0.007,0.021-0.011,0.035-0.013,0.066
				c-0.005,0.018-0.006,0.037-0.008,0.059c-0.001,0.029-0.002,0.057-0.002,0.084c0,0.031,0,0.059,0,0.092
				c0,0.023,0,0.055-0.005,0.084c-0.001,0.027-0.004,0.059-0.01,0.086l-1.216-0.027c0.007-0.031,0.015-0.059,0.018-0.088
				c0.005-0.031,0.009-0.061,0.009-0.092c0-0.027,0-0.055,0.002-0.084c0.002-0.031,0.004-0.062,0.007-0.092
				c0.004-0.018,0.007-0.039,0.011-0.066c0.004-0.02,0.01-0.041,0.021-0.059c0.006-0.021,0.015-0.045,0.029-0.066
				c0.012-0.021,0.024-0.039,0.041-0.061l0.12-0.191l0.197-0.32l0.033-0.051l0.175-0.273c0.005-0.01,0.009-0.016,0.018-0.021
				c0.005-0.006,0.01-0.016,0.018-0.021c0.007-0.01,0.013-0.016,0.021-0.025c0.006-0.002,0.015-0.014,0.022-0.021
				c0.017-0.014,0.032-0.029,0.049-0.039c0.018-0.016,0.037-0.027,0.053-0.045c0.017-0.012,0.035-0.027,0.052-0.039
				c0.017-0.016,0.035-0.027,0.05-0.041l0.139-0.121L39.716,72.079z"/>
			<path fill="#FFFFFF" d="M39.385,74.78l-0.011,0.154l0.092,0.223l1.353,0.006c-0.02-0.031-0.035-0.064-0.05-0.096
				c-0.014-0.033-0.027-0.062-0.038-0.094c-0.008-0.029-0.017-0.057-0.019-0.092c-0.001-0.027-0.001-0.057,0.006-0.088L39.385,74.78
				z M33.529,74.7l-0.058,0.176l0.031,0.254l4.694,0.014l-0.079-0.221l0.019-0.162L33.529,74.7z M30.817,74.667
				c-0.023,0.033-0.038,0.072-0.051,0.113c-0.014,0.029-0.02,0.068-0.026,0.105c-0.004,0.037-0.008,0.076-0.008,0.109
				c-0.002,0.037,0,0.08,0,0.115l1.44,0.006l-0.017-0.258l0.069-0.174L30.817,74.667z"/>
			<path fill="#FFFFFF" d="M39.69,75.678c0.018,0.033,0.03,0.064,0.042,0.098c0.012,0.037,0.023,0.07,0.037,0.107
				c0.011,0.033,0.022,0.068,0.036,0.1c0.014,0.033,0.026,0.07,0.043,0.104l1.39-0.018l-0.178-0.398L39.69,75.678z M33.586,75.711
				c0.008,0.041,0.012,0.074,0.016,0.113c0.003,0.039,0.007,0.08,0.01,0.119c0.004,0.035,0.008,0.072,0.011,0.115
				c0.006,0.039,0.015,0.076,0.022,0.115l4.881-0.066c-0.017-0.039-0.029-0.072-0.041-0.109c-0.011-0.033-0.02-0.07-0.032-0.104
				c-0.009-0.037-0.018-0.072-0.028-0.104c-0.011-0.039-0.022-0.072-0.036-0.107L33.586,75.711z M30.736,75.731l0.004,0.486
				l1.513-0.021c-0.004-0.043-0.01-0.082-0.012-0.119c-0.003-0.041-0.003-0.078-0.004-0.121c-0.001-0.039-0.001-0.078-0.001-0.119
				c-0.002-0.039-0.005-0.076-0.011-0.117L30.736,75.731z"/>
			<path fill="#FFFFFF" d="M40.291,76.655l0.381,0.441l1.428-0.049l-0.394-0.43L40.291,76.655z M33.981,76.817l0.291,0.508l0,0
				h0.001l0,0l5.044-0.178h0l0,0l0,0v-0.002l-0.362-0.453L33.981,76.817z M31.017,76.895l0.239,0.539l1.905-0.07l1.11-0.039
				l-1.431,0.051l-0.281-0.52L31.017,76.895z"/>
			<path fill="#FFFFFF" d="M32.443,74.137l1.268,0.031L33.529,74.7l-0.058,0.176l0.031,0.254l0.066,0.504
				c0.001,0.01,0.005,0.018,0.005,0.023c0.002,0.004,0.002,0.014,0.005,0.02c0,0.006,0.001,0.008,0.002,0.016
				c0,0.008,0,0.014,0.004,0.02c0.005,0.041,0.012,0.074,0.016,0.113c0.003,0.039,0.007,0.08,0.01,0.119
				c0.004,0.035,0.008,0.072,0.011,0.115c0.006,0.039,0.015,0.076,0.022,0.115c0.005,0.021,0.012,0.045,0.02,0.07
				c0.006,0.021,0.017,0.045,0.025,0.066c0.011,0.025,0.021,0.049,0.036,0.07c0.014,0.023,0.027,0.049,0.045,0.07l0.21,0.365
				l0.291,0.508l-1.431,0.051l-0.281-0.52l-0.205-0.377c-0.015-0.021-0.027-0.047-0.039-0.07c-0.011-0.027-0.02-0.049-0.028-0.072
				c-0.011-0.025-0.016-0.047-0.023-0.07c-0.004-0.025-0.008-0.049-0.012-0.07c-0.004-0.043-0.011-0.082-0.012-0.119
				c-0.003-0.041-0.003-0.078-0.004-0.121c-0.001-0.039-0.001-0.078-0.001-0.119c-0.002-0.039-0.004-0.076-0.011-0.117l-0.003-0.02
				c0-0.006-0.002-0.016-0.002-0.018c0-0.006-0.002-0.012-0.004-0.021c-0.001-0.004-0.004-0.01-0.004-0.018l-0.037-0.527
				l-0.017-0.258l0.069-0.174L32.443,74.137z"/>
			<path fill="#FFFFFF" d="M38.199,74.268l1.215,0.027l-0.029,0.484l-0.011,0.154l0.092,0.223l0.191,0.455
				c0.004,0.006,0.006,0.01,0.01,0.016c0.005,0.002,0.006,0.012,0.008,0.016l0.009,0.018c0.001,0.01,0.004,0.012,0.005,0.018
				c0.018,0.033,0.03,0.064,0.042,0.098c0.012,0.037,0.023,0.07,0.037,0.107c0.011,0.033,0.022,0.068,0.036,0.1
				c0.014,0.033,0.026,0.07,0.043,0.104c0.01,0.021,0.018,0.043,0.03,0.061c0.011,0.021,0.023,0.045,0.037,0.061
				c0.014,0.021,0.026,0.043,0.045,0.061c0.017,0.021,0.036,0.043,0.053,0.062l0.277,0.324l0.381,0.443l-1.355,0.047l-0.361-0.453
				l-0.265-0.338c-0.021-0.018-0.038-0.039-0.052-0.059c-0.018-0.021-0.034-0.045-0.049-0.062c-0.011-0.02-0.025-0.041-0.034-0.064
				c-0.011-0.021-0.022-0.045-0.03-0.061c-0.017-0.039-0.029-0.072-0.041-0.109c-0.011-0.033-0.02-0.07-0.032-0.104
				c-0.009-0.037-0.018-0.072-0.028-0.104c-0.011-0.039-0.022-0.072-0.036-0.107c-0.001-0.006-0.005-0.012-0.006-0.014
				c0-0.01-0.004-0.014-0.007-0.02c-0.003-0.008-0.005-0.012-0.008-0.021c0-0.002-0.003-0.008-0.007-0.012l-0.164-0.475
				l-0.079-0.221l0.019-0.162l0.062-0.488V74.268z"/>
			<path fill="#FFFFFF" d="M41.282,77.709c0.044,0.037,0.088,0.076,0.133,0.115c0.044,0.041,0.089,0.076,0.138,0.117
				c0.045,0.041,0.092,0.082,0.142,0.121c0.05,0.039,0.099,0.078,0.15,0.119l1.473-0.09l-0.617-0.455L41.282,77.709z M34.792,78.03
				c0.038,0.043,0.078,0.088,0.118,0.133c0.04,0.047,0.081,0.088,0.124,0.137c0.044,0.047,0.085,0.092,0.13,0.137
				c0.044,0.047,0.092,0.092,0.138,0.141l5.161-0.312c-0.048-0.041-0.098-0.082-0.147-0.123c-0.046-0.041-0.092-0.082-0.14-0.121
				c-0.046-0.043-0.091-0.084-0.135-0.121c-0.044-0.039-0.089-0.082-0.131-0.121L34.792,78.03z M31.7,78.182l0.521,0.58l1.593-0.098
				c-0.043-0.049-0.088-0.094-0.132-0.139c-0.042-0.053-0.085-0.102-0.126-0.146c-0.042-0.049-0.08-0.092-0.119-0.137
				c-0.041-0.047-0.078-0.096-0.114-0.143L31.7,78.182z"/>
			<path fill="#FFFFFF" d="M42.733,78.833c0.062,0.043,0.124,0.084,0.184,0.127c0.063,0.039,0.124,0.08,0.188,0.125
				c0.063,0.039,0.128,0.088,0.194,0.127c0.066,0.043,0.131,0.086,0.199,0.125l1.431-0.125c-0.078-0.039-0.156-0.082-0.226-0.121
				c-0.071-0.039-0.138-0.078-0.198-0.121c-0.062-0.039-0.123-0.08-0.18-0.121c-0.054-0.041-0.108-0.08-0.16-0.125L42.733,78.833z
				 M36.143,79.334c0.058,0.051,0.116,0.1,0.176,0.148c0.059,0.049,0.122,0.094,0.183,0.148c0.063,0.047,0.125,0.094,0.189,0.146
				c0.062,0.051,0.128,0.098,0.194,0.146l5.227-0.459c-0.069-0.047-0.136-0.09-0.202-0.135c-0.063-0.043-0.128-0.088-0.194-0.131
				c-0.062-0.043-0.125-0.082-0.188-0.131c-0.061-0.043-0.123-0.084-0.183-0.127L36.143,79.334z M32.969,79.577
				c0.042,0.055,0.091,0.104,0.141,0.162c0.051,0.051,0.104,0.104,0.162,0.154c0.057,0.055,0.122,0.107,0.19,0.162
				c0.067,0.051,0.142,0.104,0.221,0.154l1.689-0.148c-0.065-0.053-0.129-0.107-0.192-0.156c-0.063-0.051-0.125-0.1-0.188-0.152
				c-0.062-0.051-0.121-0.1-0.179-0.154c-0.06-0.049-0.117-0.1-0.175-0.148L32.969,79.577z"/>
			<path fill="#FFFFFF" d="M44.645,80.03c0.078,0.045,0.154,0.092,0.23,0.135c0.081,0.045,0.159,0.09,0.237,0.133
				c0.077,0.045,0.159,0.088,0.241,0.137c0.08,0.047,0.162,0.092,0.245,0.135v0.002h0.001l0,0H45.6l1.45-0.176l-0.938-0.518
				L44.645,80.03z M38.034,80.741c0.076,0.055,0.152,0.104,0.232,0.158c0.079,0.053,0.159,0.104,0.239,0.156
				c0.081,0.057,0.161,0.109,0.243,0.16c0.082,0.055,0.167,0.109,0.251,0.162l0,0H39l0,0l5.62-0.688l0.978-0.121l-1.373,0.166
				c-0.083-0.045-0.166-0.09-0.247-0.143c-0.081-0.043-0.163-0.088-0.242-0.137c-0.079-0.043-0.158-0.092-0.238-0.137
				c-0.079-0.049-0.156-0.092-0.232-0.137L38.034,80.741z M34.863,81.079l0.935,0.691l1.682-0.207l0,0h-0.002l0,0l0,0
				c-0.084-0.055-0.168-0.113-0.25-0.17c-0.083-0.053-0.165-0.109-0.246-0.162c-0.08-0.055-0.159-0.105-0.237-0.164
				c-0.08-0.055-0.156-0.105-0.233-0.158L34.863,81.079z"/>
			<path fill="#FFFFFF" d="M32.831,77.375l0.33-0.012l1.112-0.039l0,0l0,0v0.002c0.037,0.055,0.072,0.115,0.113,0.168
				c0.04,0.062,0.082,0.117,0.125,0.176c0.042,0.061,0.088,0.121,0.134,0.18c0.046,0.061,0.096,0.119,0.147,0.18
				c0.038,0.043,0.078,0.088,0.118,0.133c0.04,0.047,0.082,0.096,0.124,0.137c0.044,0.047,0.085,0.092,0.13,0.137
				c0.044,0.047,0.092,0.096,0.138,0.141c0.062,0.061,0.128,0.125,0.192,0.186c0.068,0.066,0.135,0.127,0.204,0.188
				c0.072,0.064,0.145,0.129,0.218,0.193c0.072,0.062,0.149,0.129,0.227,0.191c0.058,0.051,0.116,0.1,0.176,0.148
				c0.059,0.049,0.122,0.094,0.183,0.148c0.063,0.047,0.125,0.094,0.189,0.146c0.062,0.051,0.128,0.098,0.194,0.146
				c0.089,0.066,0.18,0.137,0.273,0.203c0.091,0.064,0.185,0.131,0.279,0.203c0.096,0.068,0.193,0.137,0.291,0.201
				c0.099,0.07,0.201,0.141,0.304,0.209c0.076,0.055,0.152,0.104,0.232,0.158c0.079,0.053,0.159,0.104,0.239,0.156
				c0.081,0.055,0.161,0.109,0.243,0.16c0.082,0.055,0.167,0.109,0.251,0.162l-1.521,0.186c-0.084-0.055-0.168-0.113-0.25-0.17
				c-0.083-0.053-0.165-0.109-0.245-0.162c-0.082-0.055-0.161-0.105-0.239-0.164c-0.08-0.055-0.156-0.105-0.233-0.158
				c-0.102-0.076-0.203-0.146-0.302-0.219c-0.099-0.07-0.194-0.141-0.29-0.213c-0.096-0.07-0.188-0.141-0.28-0.209
				c-0.09-0.07-0.18-0.141-0.269-0.207c-0.065-0.053-0.129-0.107-0.192-0.156c-0.063-0.051-0.125-0.104-0.188-0.152
				c-0.062-0.051-0.121-0.1-0.179-0.154c-0.06-0.049-0.117-0.1-0.175-0.148c-0.075-0.064-0.151-0.131-0.223-0.197
				c-0.072-0.07-0.144-0.131-0.211-0.199c-0.069-0.066-0.136-0.131-0.201-0.193c-0.066-0.07-0.127-0.131-0.189-0.195
				c-0.043-0.049-0.088-0.094-0.131-0.139c-0.043-0.053-0.086-0.102-0.127-0.146c-0.042-0.049-0.08-0.092-0.122-0.137
				c-0.038-0.047-0.075-0.096-0.111-0.143c-0.049-0.064-0.096-0.123-0.141-0.18c-0.046-0.064-0.089-0.125-0.129-0.186
				c-0.042-0.061-0.078-0.123-0.116-0.18C32.899,77.495,32.863,77.436,32.831,77.375"/>
			<path fill="#FFFFFF" d="M39.317,77.145l1.355-0.049l0,0c0.044,0.055,0.091,0.1,0.138,0.152c0.047,0.051,0.095,0.1,0.147,0.152
				c0.053,0.051,0.104,0.1,0.157,0.15c0.056,0.053,0.111,0.107,0.168,0.158c0.044,0.037,0.088,0.076,0.133,0.115
				c0.044,0.041,0.089,0.076,0.138,0.117c0.045,0.041,0.092,0.082,0.142,0.121c0.05,0.039,0.099,0.078,0.15,0.119
				c0.066,0.055,0.136,0.109,0.208,0.16c0.07,0.055,0.143,0.109,0.217,0.162c0.073,0.055,0.15,0.109,0.228,0.16
				c0.076,0.059,0.156,0.113,0.235,0.168c0.062,0.043,0.124,0.084,0.185,0.127c0.063,0.039,0.124,0.08,0.188,0.125
				c0.063,0.039,0.128,0.088,0.194,0.127c0.066,0.043,0.131,0.086,0.198,0.125c0.091,0.061,0.183,0.113,0.274,0.174
				c0.093,0.059,0.187,0.121,0.281,0.17c0.096,0.061,0.194,0.119,0.293,0.18c0.097,0.059,0.198,0.115,0.298,0.17
				c0.078,0.045,0.154,0.092,0.232,0.135c0.078,0.045,0.157,0.09,0.236,0.133c0.077,0.045,0.159,0.088,0.241,0.137
				c0.08,0.047,0.163,0.092,0.245,0.135l-1.373,0.166c-0.083-0.045-0.166-0.09-0.247-0.143c-0.083-0.043-0.163-0.088-0.242-0.137
				c-0.079-0.043-0.158-0.092-0.238-0.137c-0.079-0.049-0.154-0.092-0.231-0.137c-0.101-0.061-0.204-0.121-0.302-0.182
				c-0.101-0.064-0.199-0.123-0.293-0.184c-0.098-0.061-0.192-0.115-0.285-0.18c-0.091-0.061-0.185-0.115-0.273-0.172
				c-0.069-0.047-0.135-0.09-0.202-0.135c-0.063-0.043-0.128-0.088-0.19-0.131c-0.065-0.043-0.128-0.082-0.191-0.131
				c-0.061-0.043-0.123-0.084-0.183-0.127c-0.08-0.061-0.158-0.113-0.235-0.174c-0.076-0.059-0.154-0.113-0.226-0.17
				c-0.074-0.053-0.148-0.113-0.217-0.168c-0.071-0.055-0.14-0.109-0.206-0.166c-0.048-0.041-0.098-0.082-0.147-0.123
				c-0.046-0.041-0.092-0.078-0.14-0.121c-0.046-0.043-0.091-0.084-0.135-0.121c-0.044-0.039-0.089-0.082-0.131-0.121
				c-0.056-0.055-0.111-0.107-0.165-0.162c-0.053-0.049-0.104-0.105-0.152-0.158c-0.049-0.055-0.097-0.104-0.143-0.158
				c-0.046-0.051-0.091-0.104-0.133-0.152l0,0h0l0,0V77.145z"/>
			<path fill="#FFFFFF" d="M47.083,81.295l0.505,0.229l0.715,0.328l1.406-0.229l-1.194-0.535L47.083,81.295z M40.55,82.237
				l0.528,0.277l0.759,0.389l5.131-0.832l-0.725-0.344l-0.513-0.24L40.55,82.237z M37.35,82.7l1.313,0.721l1.667-0.268l-0.773-0.41
				l-0.534-0.283L37.35,82.7z"/>
			<path fill="#FFFFFF" d="M50.021,82.622c0.123,0.047,0.243,0.09,0.365,0.143c0.122,0.045,0.246,0.09,0.37,0.139
				s0.25,0.092,0.372,0.143c0.129,0.049,0.255,0.098,0.383,0.146l1.341-0.289l-1.487-0.537L50.021,82.622z M43.67,83.831
				c0.13,0.055,0.263,0.111,0.393,0.17c0.133,0.061,0.265,0.119,0.4,0.174c0.136,0.057,0.273,0.109,0.408,0.172
				c0.138,0.055,0.275,0.117,0.415,0.174l4.942-1.057c-0.132-0.053-0.259-0.102-0.388-0.15c-0.129-0.051-0.255-0.1-0.382-0.145
				c-0.127-0.055-0.251-0.102-0.377-0.15c-0.123-0.047-0.246-0.102-0.37-0.148L43.67,83.831z M40.52,84.432l1.697,0.744l1.609-0.344
				c-0.141-0.062-0.28-0.123-0.42-0.182c-0.139-0.064-0.276-0.119-0.414-0.18c-0.135-0.061-0.271-0.121-0.405-0.18
				c-0.134-0.061-0.267-0.117-0.399-0.176L40.52,84.432z"/>
			<path fill="#FFFFFF" d="M44.598,86.213l1.578-0.393c0.152,0.068,0.304,0.129,0.456,0.195c0.154,0.061,0.306,0.125,0.459,0.189
				c0.153,0.066,0.307,0.131,0.462,0.197c0.154,0.066,0.31,0.131,0.464,0.201l1.38-0.396c-0.151-0.055-0.304-0.121-0.454-0.186
				c-0.152-0.061-0.303-0.121-0.453-0.186c-0.15-0.061-0.299-0.121-0.451-0.186c-0.149-0.061-0.298-0.125-0.445-0.18l4.779-1.191
				c0.138,0.049,0.274,0.102,0.413,0.156c0.138,0.051,0.276,0.105,0.416,0.158c0.137,0.051,0.276,0.102,0.417,0.156
				s0.28,0.107,0.418,0.166l1.197-0.342c-0.136-0.045-0.272-0.1-0.41-0.148c-0.133-0.055-0.271-0.104-0.407-0.156
				c-0.135-0.047-0.27-0.1-0.406-0.148c-0.134-0.051-0.27-0.105-0.404-0.152l1.285-0.318l1.585,0.58l-9.991,2.797L44.598,86.213z"/>
			<path fill="#FFFFFF" d="M37.478,81.563l1.521-0.186H39c0.067,0.051,0.137,0.094,0.212,0.143c0.073,0.049,0.151,0.098,0.233,0.141
				c0.082,0.051,0.167,0.096,0.253,0.139c0.09,0.049,0.182,0.092,0.277,0.141l0.575,0.297l0.528,0.277l0.759,0.389l1.573,0.816
				c0.022,0.008,0.045,0.014,0.067,0.023c0.021,0.01,0.042,0.023,0.064,0.033c0.022,0.006,0.045,0.016,0.063,0.027
				c0.024,0.01,0.043,0.021,0.065,0.027c0.13,0.055,0.263,0.111,0.393,0.17c0.133,0.061,0.265,0.119,0.401,0.174
				c0.135,0.057,0.272,0.109,0.407,0.172c0.138,0.055,0.275,0.117,0.415,0.174c0.186,0.08,0.375,0.156,0.563,0.234
				c0.191,0.078,0.382,0.154,0.574,0.23c0.193,0.082,0.386,0.164,0.583,0.244c0.195,0.082,0.392,0.158,0.59,0.242
				c0.147,0.055,0.296,0.119,0.445,0.18c0.151,0.064,0.301,0.125,0.451,0.186c0.15,0.064,0.301,0.125,0.453,0.186
				c0.149,0.064,0.302,0.131,0.454,0.186l-1.38,0.396c-0.153-0.07-0.31-0.135-0.464-0.201c-0.155-0.066-0.309-0.131-0.462-0.197
				c-0.153-0.064-0.305-0.129-0.459-0.189c-0.152-0.066-0.304-0.127-0.456-0.195c-0.201-0.084-0.402-0.17-0.601-0.248
				c-0.199-0.086-0.398-0.17-0.594-0.25c-0.195-0.084-0.392-0.166-0.583-0.246c-0.191-0.086-0.383-0.164-0.573-0.244
				c-0.141-0.062-0.28-0.123-0.419-0.182c-0.141-0.064-0.278-0.119-0.414-0.18c-0.135-0.061-0.271-0.121-0.405-0.18
				c-0.134-0.061-0.268-0.117-0.399-0.176c-0.022-0.012-0.043-0.021-0.065-0.033c-0.022-0.01-0.044-0.018-0.066-0.027
				s-0.044-0.021-0.066-0.033c-0.022-0.006-0.043-0.021-0.065-0.031l-1.595-0.838l-0.773-0.41l-0.534-0.283l-0.575-0.307
				c-0.095-0.049-0.187-0.098-0.276-0.143c-0.09-0.055-0.175-0.102-0.256-0.152c-0.081-0.049-0.158-0.094-0.231-0.146
				c-0.072-0.051-0.142-0.098-0.206-0.148l0,0l0,0C37.478,81.563,37.478,81.563,37.478,81.563L37.478,81.563z"/>
			<path fill="#FFFFFF" d="M44.233,80.741l0.387-0.051l0.978-0.119l0,0h0.001l0,0H45.6c0.066,0.039,0.135,0.082,0.208,0.119
				c0.074,0.043,0.15,0.082,0.226,0.125c0.079,0.033,0.159,0.076,0.243,0.119c0.085,0.035,0.171,0.072,0.261,0.111l0.546,0.25
				l0.505,0.229l0.715,0.328l1.476,0.674c0.021,0.006,0.04,0.012,0.062,0.021c0.02,0.012,0.04,0.016,0.061,0.027
				c0.019,0.006,0.042,0.01,0.061,0.025c0.019,0.006,0.042,0.012,0.059,0.023c0.123,0.045,0.243,0.088,0.365,0.141
				c0.122,0.045,0.246,0.09,0.37,0.139s0.25,0.092,0.372,0.143c0.129,0.049,0.255,0.098,0.383,0.146
				c0.17,0.061,0.343,0.125,0.514,0.186c0.172,0.07,0.349,0.135,0.523,0.195c0.176,0.072,0.353,0.133,0.529,0.201
				c0.178,0.064,0.355,0.133,0.533,0.195c0.134,0.047,0.27,0.102,0.404,0.152c0.137,0.049,0.271,0.102,0.406,0.148
				c0.136,0.053,0.274,0.102,0.407,0.156c0.137,0.049,0.274,0.104,0.41,0.148l-1.197,0.342c-0.138-0.059-0.277-0.111-0.418-0.166
				s-0.28-0.105-0.417-0.156c-0.14-0.053-0.278-0.107-0.416-0.158c-0.138-0.055-0.274-0.107-0.413-0.156
				c-0.184-0.072-0.366-0.139-0.547-0.207c-0.182-0.072-0.361-0.137-0.541-0.207c-0.18-0.062-0.358-0.135-0.534-0.201
				c-0.176-0.064-0.351-0.135-0.527-0.201c-0.129-0.053-0.256-0.102-0.385-0.15c-0.129-0.051-0.255-0.1-0.382-0.145
				c-0.127-0.055-0.251-0.102-0.375-0.15c-0.125-0.047-0.247-0.102-0.372-0.148l-0.06-0.027c-0.021-0.006-0.042-0.016-0.064-0.021
				c-0.02-0.008-0.04-0.021-0.062-0.029l-0.061-0.021l-1.497-0.699l-0.725-0.344l-0.513-0.24l-0.561-0.256
				c-0.089-0.043-0.179-0.078-0.263-0.119c-0.088-0.041-0.17-0.084-0.247-0.121c-0.079-0.045-0.153-0.082-0.224-0.127
				C44.363,80.823,44.298,80.778,44.233,80.741"/>
		</g>
		<g>
			<defs>
				<path id="SVGID_1_" d="M41.473,32.053l0.005,0.02c0.016-0.034,0.033-0.074,0.05-0.102C41.51,31.998,41.492,32.025,41.473,32.053
					"/>
			</defs>
			<clipPath id="SVGID_2_">
				<use xlink:href="#SVGID_1_"  overflow="visible"/>
			</clipPath>
			
				<linearGradient id="SVGID_3_" gradientUnits="userSpaceOnUse" x1="-55.5503" y1="455.6641" x2="-55.1503" y2="455.6641" gradientTransform="matrix(9.4406 -82.9892 -82.9892 -9.4406 38378.6875 -254.4375)">
				<stop  offset="0" style="stop-color:#41AE70"/>
				<stop  offset="1" style="stop-color:#38A7D7"/>
			</linearGradient>
			<polygon clip-path="url(#SVGID_2_)" fill="url(#SVGID_3_)" points="41.46,32.072 41.473,31.965 41.54,31.971 41.526,32.078 			
				"/>
		</g>
		<g>
			<path fill="#F9BD18" d="M28.149,43.845c-1.06-1.63-0.712-8.108,2.035-12.862c4.367-7.553,10.907-10.866,9.951-11.475
				c-1.13-0.718-8.477,1.982-13.816,11.064c-0.531,0.9-1.077,2.014-1.574,3.254c-0.002,0.024-0.004,0.045-0.007,0.072
				C24.254,39.454,26.776,42.738,28.149,43.845"/>
		</g>
		<g>
			<defs>
				<path id="SVGID_4_" d="M25.753,49.635c6.057,4.764,13.137-1.898,14.038-2.975c0.007-0.015,0.009-0.023,0.009-0.023
					s-2.595-5.711,0.432-12.516c-4.314,7.197-9.678,11.174-11.669,10.013c-1.178-0.687-4.363-4.054-3.825-10.235
					c0.002-0.029,0.005-0.048,0.007-0.072C22.683,38.965,21.478,46.271,25.753,49.635"/>
			</defs>
			<clipPath id="SVGID_5_">
				<use xlink:href="#SVGID_4_"  overflow="visible"/>
			</clipPath>
			
				<linearGradient id="SVGID_6_" gradientUnits="userSpaceOnUse" x1="-54.6943" y1="458.3398" x2="-54.2209" y2="458.3398" gradientTransform="matrix(27.1623 -31.5166 -31.5166 -27.1623 15956.6602 10775.875)">
				<stop  offset="0" style="stop-color:#8D1B4F"/>
				<stop  offset="0.0443" style="stop-color:#9C1E5A"/>
				<stop  offset="0.1283" style="stop-color:#B2216B"/>
				<stop  offset="0.2274" style="stop-color:#C32477"/>
				<stop  offset="0.3501" style="stop-color:#CE2680"/>
				<stop  offset="0.5222" style="stop-color:#D52886"/>
				<stop  offset="1" style="stop-color:#D72887"/>
			</linearGradient>
			<polygon clip-path="url(#SVGID_5_)" fill="url(#SVGID_6_)" points="11.302,45.63 29.472,24.549 50.407,42.592 32.237,63.672 			
				"/>
		</g>
		<g>
			<defs>
				<path id="SVGID_7_" d="M70.524,18.148c-0.602,0.037-0.934,1.928-0.979,4.005c-0.038,1.733,2.15,2.679,2.68,1.733
					c0.616-1.102-1.002-5.738-1.689-5.738C70.532,18.148,70.529,18.148,70.524,18.148"/>
			</defs>
			<clipPath id="SVGID_8_">
				<use xlink:href="#SVGID_7_"  overflow="visible"/>
			</clipPath>
			
				<linearGradient id="SVGID_9_" gradientUnits="userSpaceOnUse" x1="-57.5439" y1="441.7236" x2="-57.0709" y2="441.7236" gradientTransform="matrix(-12.4408 4.9763 4.9763 12.4408 -2839.5195 -5188.8906)">
				<stop  offset="0" style="stop-color:#8D1B4F"/>
				<stop  offset="0.0084" style="stop-color:#8D1B4F"/>
				<stop  offset="0.5838" style="stop-color:#D72887"/>
				<stop  offset="1" style="stop-color:#D72887"/>
			</linearGradient>
			<polygon clip-path="url(#SVGID_8_)" fill="url(#SVGID_9_)" points="75.146,23.908 69.964,25.979 67.203,19.07 72.381,17 			"/>
		</g>
		<g>
			<defs>
				<path id="SVGID_10_" d="M63.43,19.094c-1.18,1.67,3.358,3.963,2.225,7.814c-0.271,0.922-0.793,1.713-1.429,2.375
					c-5.041,2.932-4.416,5.638-1.352,7.818c3.065,2.183,6.385-0.059,6.385-0.059c-0.679-2.377,0.379-4.266,0.379-4.266
					c1.531,2.322,3.939,3.283,4.585,3.342c0.833,0.076,2.681-0.08,1.398-6.301c-1.283-6.232-6.003-3.363-7.439-6.686
					c-1.135-2.631-2.885-4.431-4.015-4.431C63.871,18.702,63.617,18.826,63.43,19.094"/>
			</defs>
			<clipPath id="SVGID_11_">
				<use xlink:href="#SVGID_10_"  overflow="visible"/>
			</clipPath>
			
				<linearGradient id="SVGID_12_" gradientUnits="userSpaceOnUse" x1="-58.8105" y1="448.9082" x2="-58.3372" y2="448.9082" gradientTransform="matrix(-25.2962 15.3436 15.3436 25.2962 -8299.8828 -10428.9375)">
				<stop  offset="0" style="stop-color:#8D1B4F"/>
				<stop  offset="0.0084" style="stop-color:#8D1B4F"/>
				<stop  offset="0.5838" style="stop-color:#D72887"/>
				<stop  offset="1" style="stop-color:#D72887"/>
			</linearGradient>
			<polygon clip-path="url(#SVGID_11_)" fill="url(#SVGID_12_)" points="86.033,33.75 63.951,47.145 50.059,24.239 72.14,10.846 			
				"/>
		</g>
		<g>
			<defs>
				<path id="SVGID_13_" d="M65.012,41.969c0,0,2.703,2.059,1.682,5.567c-1.209,4.15-3.41,3.914-2.997,4.847
					c0.393,0.877,3.11,0.357,5.602-3.524c2.564-4.008,0.642-9.436-0.039-11.816C69.577,39.545,65.012,41.969,65.012,41.969"/>
			</defs>
			<clipPath id="SVGID_14_">
				<use xlink:href="#SVGID_13_"  overflow="visible"/>
			</clipPath>
			
				<linearGradient id="SVGID_15_" gradientUnits="userSpaceOnUse" x1="-60.0981" y1="455.0684" x2="-59.6242" y2="455.0684" gradientTransform="matrix(29.6505 82.109 82.109 -29.6505 -35521.1875 18457.4688)">
				<stop  offset="0" style="stop-color:#91BD3F"/>
				<stop  offset="0.2035" style="stop-color:#91BD3F"/>
				<stop  offset="0.7501" style="stop-color:#E6BD20"/>
				<stop  offset="1" style="stop-color:#E6BD20"/>
			</linearGradient>
			<polygon clip-path="url(#SVGID_14_)" fill="url(#SVGID_15_)" points="70.872,34.304 77.043,51.389 64.272,56.004 58.103,38.916 
							"/>
		</g>
		<g>
			<defs>
				<path id="SVGID_16_" d="M45.159,27.383c-9.89,9.286-5.359,19.254-5.359,19.254s-0.002,0.009-0.009,0.023
					c0.007-0.009,0.014-0.015,0.021-0.027c0.391,1.076,1.005,2.025,1.62,2.804c1.181,1.5,1.403,3.539,0.612,5.273
					c-1.721,3.779-4.4,6.062-4.4,6.062c-1.148,10.963,2.752,21.094,3.813,20.725c1.037-0.359-1.945-11.232,0.453-19.746
					c1.797-2.098,2.847-1.986,6.855-8.311c-0.002,0.025-0.005,0.047-0.006,0.068c0.006-0.016,0.014-0.027,0.022-0.053
					c1.126-2.744,1.585-5.42-1.112-11.244c-3.252-7.026-0.936-13.798,1.641-16.121c2.355-2.122,3.89-2.244,3.89-2.244
					c-0.308-0.042-0.617-0.067-0.927-0.067C49.94,23.779,47.498,25.054,45.159,27.383"/>
			</defs>
			<clipPath id="SVGID_17_">
				<use xlink:href="#SVGID_16_"  overflow="visible"/>
			</clipPath>
			
				<linearGradient id="SVGID_18_" gradientUnits="userSpaceOnUse" x1="-54.1343" y1="451.6816" x2="-53.6609" y2="451.6816" gradientTransform="matrix(-31.3092 -23.8448 -23.8448 31.3092 9119.9688 -15379.5078)">
				<stop  offset="0" style="stop-color:#0169A4"/>
				<stop  offset="0.1575" style="stop-color:#056BA5"/>
				<stop  offset="0.3072" style="stop-color:#1071A9"/>
				<stop  offset="0.4538" style="stop-color:#237AB0"/>
				<stop  offset="0.5984" style="stop-color:#3E87BA"/>
				<stop  offset="0.7403" style="stop-color:#6198C6"/>
				<stop  offset="0.7948" style="stop-color:#70A0CB"/>
				<stop  offset="1" style="stop-color:#70A0CB"/>
			</linearGradient>
			<polygon clip-path="url(#SVGID_17_)" fill="url(#SVGID_18_)" points="46.616,90.499 7.271,60.54 41.85,15.139 81.193,45.104 			
				"/>
		</g>
		<g>
			<defs>
				<path id="SVGID_19_" d="M52.331,24.094c-0.678,0.27-1.726,0.83-3.021,1.997c-2.576,2.323-4.893,9.095-1.641,16.121
					c2.698,5.823,2.239,8.5,1.112,11.244c-0.008,0.025-0.016,0.037-0.022,0.053c-0.356,4.293-3.383,6.648-3.383,6.648
					c-2.114,6.906-3.03,19.809-1.825,19.703c1.321-0.115,0.96-10.178,5.866-17.77c8.343-6.904,8.422-14.059,8.422-14.059
					s0.636-3.581-2.62-8.176c-3.38-4.771,0.14-11.658,9.007-10.572c-1.085-0.2-1.801-0.443-1.801-0.443l-0.02-0.006
					c-2.567-0.949-4.974-4.352-9.206-4.987C53.199,23.847,52.863,23.91,52.331,24.094"/>
			</defs>
			<clipPath id="SVGID_20_">
				<use xlink:href="#SVGID_19_"  overflow="visible"/>
			</clipPath>
			
				<linearGradient id="SVGID_21_" gradientUnits="userSpaceOnUse" x1="-56.2271" y1="456.1768" x2="-55.754" y2="456.1768" gradientTransform="matrix(40.0178 -88.1221 -88.1221 -40.0178 42498.3438 13361.6875)">
				<stop  offset="0" style="stop-color:#0FB2E7"/>
				<stop  offset="0.271" style="stop-color:#0FB2E7"/>
				<stop  offset="1" style="stop-color:#D1EDFB"/>
			</linearGradient>
			<polygon clip-path="url(#SVGID_20_)" fill="url(#SVGID_21_)" points="21.219,70.37 46.086,15.613 85.353,33.443 60.485,88.202 
							"/>
		</g>
		<g>
			<defs>
				<path id="SVGID_22_" d="M55.219,39.855c3.256,4.595,2.62,8.176,2.62,8.176c0.561,2.297,1.563,5.233,2.964,4.838
					c1.082-0.307-1.088-3.956,0.752-7.542c1.353-2.633,3.457-3.359,3.457-3.359s4.564-2.424,4.248-4.926c0,0-3.32,2.241-6.385,0.059
					c-3.064-2.181-3.689-4.887,1.352-7.818c-0.1-0.012-0.195-0.021-0.293-0.033c-0.523-0.052-1.033-0.079-1.519-0.079
					C54.892,29.171,52.081,35.422,55.219,39.855"/>
			</defs>
			<clipPath id="SVGID_23_">
				<use xlink:href="#SVGID_22_"  overflow="visible"/>
			</clipPath>
			
				<linearGradient id="SVGID_24_" gradientUnits="userSpaceOnUse" x1="-46.8774" y1="458.5322" x2="-46.4042" y2="458.5322" gradientTransform="matrix(0 -16.5877 -16.5877 0 7666.8281 -738.1484)">
				<stop  offset="0" style="stop-color:#F29423"/>
				<stop  offset="0.2018" style="stop-color:#F29423"/>
				<stop  offset="1" style="stop-color:#E6BD20"/>
			</linearGradient>
			<rect x="52.081" y="29.171" clip-path="url(#SVGID_23_)" fill="url(#SVGID_24_)" width="17.496" height="24.093"/>
		</g>
		<g>
			<defs>
				<path id="SVGID_25_" d="M26.319,30.572c-0.531,0.9-1.077,2.014-1.574,3.254c-0.002,0.024-0.004,0.043-0.007,0.072
					c-0.484,5.556,2.038,8.84,3.411,9.946c-1.06-1.63-0.712-8.108,2.035-12.862c4.367-7.553,10.907-10.866,9.951-11.475
					c-0.113-0.07-0.289-0.106-0.52-0.106C37.546,19.401,31.123,22.402,26.319,30.572"/>
			</defs>
			<clipPath id="SVGID_26_">
				<use xlink:href="#SVGID_25_"  overflow="visible"/>
			</clipPath>
			
				<linearGradient id="SVGID_27_" gradientUnits="userSpaceOnUse" x1="-57.6909" y1="463.873" x2="-57.2178" y2="463.873" gradientTransform="matrix(19.9052 -2.6955 -2.6955 -19.9052 2424.2969 9110.5625)">
				<stop  offset="0" style="stop-color:#F29423"/>
				<stop  offset="0.986" style="stop-color:#E6BD20"/>
				<stop  offset="1" style="stop-color:#E6BD20"/>
			</linearGradient>
			<polygon clip-path="url(#SVGID_26_)" fill="url(#SVGID_27_)" points="21.003,19.836 40.787,17.16 44.342,43.404 24.557,46.083 
							"/>
		</g>
		<g>
			<path fill="#FFFFFF" d="M85.608,35.86h7.731l11.896,33.376h-7.823l-2.221-7.27H83.758l-2.224,7.27h-7.778L85.608,35.86z
				 M85.472,56.362h8.053l-3.38-11.428c-0.508-1.572-0.553-1.897-0.647-3.473c-0.138,1.48-0.187,1.9-0.648,3.473L85.472,56.362z"/>
			<path fill="#FFFFFF" d="M120.837,67.245c-1.388,1.621-3.842,2.684-6.433,2.684c-5.602,0-8.843-3.748-8.843-10.369V44.188h6.713
				v15.279c0,3.379,1.435,4.953,4.397,4.953c3.008,0,4.677-1.898,4.677-5.416V44.188h6.665v25.048h-6.434v-3.428
				C121.299,66.598,121.161,66.874,120.837,67.245"/>
			<path fill="#FFFFFF" d="M136.438,60.581v0.137c0,2.824,1.852,4.303,5.277,4.303c2.592,0,4.214-1.062,4.214-2.682
				c0-0.879-0.557-1.527-1.482-1.947c-0.46-0.229-0.972-0.322-3.518-0.969l-2.546-0.648c-0.973-0.234-2.039-0.605-2.593-0.787
				c-3.333-1.113-4.86-3.195-4.86-6.482c0-5.093,3.889-8.143,10.369-8.143c3.382,0,6.064,0.827,8.103,2.542
				c0.878,0.83,1.572,1.761,2.082,2.821c0.51,1.02,0.649,1.807,0.649,3.477h-6.298c0-0.141,0.048-0.281,0.048-0.418
				c0-2.127-1.896-3.612-4.677-3.612c-2.313,0-3.98,1.066-3.98,2.502c0,0.65,0.372,1.205,0.973,1.527
				c0.416,0.275,1.019,0.459,2.222,0.785l2.315,0.6l1.296,0.326c1.436,0.418,2.314,0.598,3.333,0.973
				c3.658,1.25,5.372,3.283,5.372,6.574c0,5.32-4.307,8.609-11.159,8.609c-7.267,0-11.387-3.383-11.62-9.488H136.438z"/>
			<path fill="#FFFFFF" d="M160.186,60.581v0.137c0,2.824,1.854,4.303,5.279,4.303c2.592,0,4.213-1.062,4.213-2.682
				c0-0.879-0.556-1.527-1.483-1.947c-0.461-0.229-0.972-0.322-3.518-0.969l-2.545-0.648c-0.972-0.234-2.037-0.605-2.594-0.787
				c-3.332-1.113-4.861-3.195-4.861-6.482c0-5.093,3.889-8.143,10.371-8.143c3.381,0,6.064,0.827,8.1,2.542
				c0.88,0.83,1.573,1.761,2.083,2.821c0.509,1.02,0.648,1.807,0.648,3.477h-6.296c0-0.141,0.045-0.281,0.045-0.418
				c0-2.127-1.895-3.612-4.673-3.612c-2.316,0-3.981,1.066-3.981,2.502c0,0.65,0.369,1.205,0.972,1.527
				c0.415,0.275,1.019,0.459,2.222,0.785l2.314,0.6l1.297,0.326c1.435,0.418,2.315,0.598,3.333,0.973
				c3.656,1.25,5.371,3.283,5.371,6.574c0,5.32-4.305,8.609-11.158,8.609c-7.267,0-11.389-3.383-11.62-9.488H160.186z"/>
			<path fill="#FFFFFF" d="M178.842,35.86h6.713v6.294h-6.713V35.86z M178.842,44.188h6.713v25.048h-6.713V44.188z"/>
			<path fill="#FFFFFF" d="M194.767,58.774c0.277,3.795,2.591,6.154,6.018,6.154c2.499,0,4.166-1.201,5.046-3.516h6.76
				c-0.74,2.363-1.203,3.287-2.316,4.582c-2.314,2.686-5.507,4.025-9.626,4.025c-7.731,0-12.687-5.229-12.687-13.514
				c0-7.733,5.14-13.145,12.547-13.145c7.499,0,12.312,5.412,12.312,13.795c0,0.412,0,0.969-0.044,1.617H194.767z M194.859,53.866
				h11.112c-0.141-3.334-2.362-5.557-5.51-5.557C197.357,48.309,195.322,50.346,194.859,53.866"/>
			<polygon fill="#48C7F4" points="210.23,35.86 237.541,35.86 237.541,41.924 227.405,41.924 227.405,69.237 220.414,69.237 
				220.414,41.877 210.23,41.877 			"/>
			<path fill="#48C7F4" d="M235.736,44.188h6.479v4.169c0.787-3.102,3.055-4.953,6.156-4.953c0.51,0,0.834,0.045,1.717,0.276v6.063
				c-0.837-0.183-1.113-0.183-1.625-0.183c-3.703,0-6.016,2.64-6.016,6.945v12.73h-6.712V44.188z"/>
			<path fill="#48C7F4" d="M264.111,68.448c-1.711,1.016-3.427,1.48-5.648,1.48c-5.413,0-8.979-3.008-8.979-7.59
				c0-2.361,0.881-4.309,2.639-5.693c1.619-1.389,3.75-2.082,8.008-2.688l2.547-0.322c2.592-0.416,3.426-0.881,3.426-1.941v-0.791
				c0-1.436-1.758-2.682-3.797-2.682c-2.963,0-4.812,1.436-4.812,3.747v0.371h-6.204c0.185-5.927,3.936-8.98,11.017-8.98
				c6.619,0,10.554,3.011,10.554,8.238v10.742c0,0.967,0,1.248,0.093,1.48c0.14,0.367,0.602,0.508,1.343,0.508h0.418v5.094
				c-0.604,0.092-1.11,0.186-1.435,0.186c-0.832,0.09-2.268,0.137-2.964,0.137c-2.778,0-3.89-1.018-3.89-3.562v-0.094
				C265.824,67.196,265.407,67.567,264.111,68.448 M266.564,56.731c-0.554,0.33-0.879,0.514-1.157,0.654
				c-0.784,0.227-1.618,0.506-3.518,0.832c-2.5,0.512-2.869,0.557-3.705,0.928c-0.461,0.186-0.832,0.367-1.203,0.693
				c-0.554,0.514-0.832,1.252-0.832,1.992c0,1.846,1.483,2.961,3.98,2.961c3.473,0,6.435-2.084,6.435-4.537V56.731z"/>
			<path fill="#48C7F4" d="M276.75,35.86h6.715v6.294h-6.715V35.86z M276.75,44.188h6.715v25.048h-6.715V44.188z"/>
			<path fill="#48C7F4" d="M286.841,44.188h6.525v3.102c2.083-2.587,4.445-3.841,7.452-3.841c2.595,0,5.093,1.11,6.622,2.871
				c1.479,1.711,1.988,3.566,1.988,7.221v15.695h-6.666V53.68c0-3.006-1.482-4.626-4.212-4.626c-3.009,0-5.001,2.171-5.001,5.552
				v14.631h-6.709V44.188z"/>
			<path fill="#48C7F4" d="M317.949,60.581v0.137c0,2.824,1.852,4.303,5.276,4.303c2.593,0,4.214-1.062,4.214-2.682
				c0-0.879-0.558-1.527-1.482-1.947c-0.465-0.229-0.973-0.322-3.518-0.969l-2.547-0.648c-0.972-0.234-2.037-0.605-2.594-0.787
				c-3.331-1.113-4.861-3.195-4.861-6.482c0-5.093,3.891-8.143,10.373-8.143c3.379,0,6.062,0.827,8.1,2.542
				c0.881,0.83,1.574,1.761,2.084,2.821c0.508,1.02,0.646,1.807,0.646,3.477h-6.295c0-0.141,0.045-0.281,0.045-0.418
				c0-2.127-1.898-3.612-4.674-3.612c-2.314,0-3.981,1.066-3.981,2.502c0,0.65,0.37,1.205,0.972,1.527
				c0.416,0.275,1.02,0.459,2.223,0.785l2.314,0.6l1.297,0.326c1.434,0.418,2.312,0.598,3.332,0.973
				c3.656,1.25,5.369,3.283,5.369,6.574c0,5.32-4.303,8.609-11.157,8.609c-7.267,0-11.386-3.383-11.616-9.488H317.949z"/>
		</g>
	</g>
	<g>
		<path fill="#48C7F4" d="M407.859,57.731l6.645,0.607c-0.43,3.33-1.969,6.07-4.621,8.223c-2.65,2.152-6.131,3.225-10.443,3.225
			c-3.631,0-6.578-0.762-8.84-2.289c-2.262-1.523-4.006-3.594-5.23-6.211c-1.223-2.611-1.836-5.494-1.836-8.645
			c0-5.069,1.438-9.188,4.312-12.363s6.826-4.762,11.855-4.762c3.945,0,7.227,1.013,9.848,3.044s4.273,4.938,4.955,8.721
			l-6.645,0.586c-1.223-5.02-3.922-7.527-8.098-7.527c-2.68,0-4.764,1.042-6.25,3.128c-1.486,2.089-2.229,5.111-2.229,9.076
			c0,4.025,0.797,7.066,2.389,9.121c1.592,2.057,3.701,3.082,6.322,3.082c2.1,0,3.883-0.691,5.361-2.068
			C406.832,61.297,407.664,59.647,407.859,57.731z"/>
	</g>
	<g>
		<path fill="#48C7F4" d="M407.809,57.961l6.643,0.611c-0.428,3.33-1.967,6.07-4.619,8.223c-2.65,2.148-6.131,3.225-10.443,3.225
			c-3.631,0-6.578-0.764-8.842-2.289c-2.262-1.525-4.006-3.596-5.23-6.211c-1.221-2.615-1.834-5.498-1.834-8.648
			c0-5.065,1.438-9.184,4.312-12.36c2.873-3.177,6.826-4.764,11.855-4.764c3.943,0,7.227,1.016,9.848,3.047s4.271,4.935,4.953,8.721
			l-6.643,0.583c-1.221-5.017-3.924-7.525-8.098-7.525c-2.68,0-4.764,1.043-6.25,3.129s-2.229,5.111-2.229,9.072
			c0,4.029,0.795,7.07,2.389,9.123c1.592,2.055,3.701,3.082,6.322,3.082c2.098,0,3.885-0.689,5.361-2.07
			C406.779,61.528,407.611,59.881,407.809,57.961z"/>
	</g>
	<g>
		<path fill="#48C7F4" d="M373.182,49.108l5.973,0.876c-0.857,4.743-3.217,8.932-7.082,12.569c1.361,1.234,2.365,1.986,3.016,2.254
			c0.652,0.268,1.424,0.404,2.316,0.404c0.41,0,0.99-0.043,1.75-0.125v4.65l-2.77,0.049c-1.805,0-3.287-0.219-4.439-0.656
			c-1.158-0.438-2.648-1.404-4.475-2.896c-3.979,2.371-8.312,3.553-12.992,3.553c-4.448,0-8.064-1-10.85-3.006
			c-2.789-2.004-4.181-4.479-4.181-7.416c0-1.869,0.648-3.646,1.95-5.336c1.303-1.688,4.098-3.326,8.389-4.919
			c-2.309-2.274-3.465-4.376-3.465-6.31c0-2.158,0.971-3.913,2.912-5.26c1.941-1.351,4.43-2.022,7.458-2.022
			c3.107,0,5.651,0.651,7.632,1.949s2.971,3.067,2.971,5.309c0,1.575-0.668,3.096-2.008,4.556c-1.341,1.462-3.254,2.614-5.74,3.459
			l8.625,8.234C370.889,56.098,372.559,52.795,373.182,49.108z M353.255,52.762c-3.963,1.494-5.942,3.572-5.942,6.236
			c0,1.785,0.772,3.217,2.313,4.297c1.545,1.082,3.491,1.621,5.843,1.621c2.893,0,5.62-0.785,8.187-2.363L353.255,52.762z
			 M356.284,47.159c3.38-1.186,5.069-2.646,5.069-4.385c0-0.942-0.408-1.681-1.223-2.216c-0.816-0.535-1.777-0.803-2.885-0.803
			c-1.127,0-2.112,0.27-2.957,0.814c-0.844,0.544-1.268,1.256-1.268,2.131C353.021,44.131,354.109,45.617,356.284,47.159z"/>
	</g>
	<path fill="#48C7F4" d="M449.369,67.147c-1.387,1.621-3.842,2.686-6.434,2.686c-5.602,0-8.844-3.748-8.844-10.371v-15.37h6.715
		V59.37c0,3.381,1.436,4.953,4.398,4.953c3.006,0,4.676-1.896,4.676-5.416V44.092h6.664v25.047h-6.434v-3.426
		C449.832,66.5,449.693,66.776,449.369,67.147"/>
	<path fill="#48C7F4" d="M500.639,58.866c0.277,3.795,2.59,6.154,6.018,6.154c2.5,0,4.168-1.201,5.047-3.516h6.76
		c-0.74,2.363-1.203,3.287-2.316,4.58c-2.314,2.686-5.508,4.023-9.625,4.023c-7.734,0-12.688-5.225-12.688-13.514
		c0-7.733,5.139-13.145,12.547-13.145c7.498,0,12.312,5.412,12.312,13.795c0,0.414,0,0.971-0.047,1.621H500.639z M500.732,53.958
		h11.111c-0.141-3.334-2.361-5.557-5.51-5.557C503.229,48.4,501.193,50.438,500.732,53.958"/>
	<path fill="#48C7F4" d="M499.498,58.866c0.277,3.795,2.592,6.154,6.02,6.154c2.498,0,4.164-1.201,5.043-3.516h6.762
		c-0.738,2.363-1.203,3.287-2.314,4.58c-2.314,2.686-5.508,4.023-9.629,4.023c-7.73,0-12.688-5.225-12.688-13.514
		c0-7.733,5.141-13.145,12.549-13.145c7.5,0,12.311,5.412,12.311,13.795c0,0.414,0,0.971-0.043,1.621H499.498z M499.592,53.958
		h11.111c-0.143-3.334-2.361-5.557-5.51-5.557C502.09,48.4,500.055,50.438,499.592,53.958"/>
	<path fill="#48C7F4" d="M416.432,44.119h6.479v4.168c0.787-3.104,3.057-4.953,6.158-4.953c0.51,0,0.832,0.046,1.717,0.277v6.062
		c-0.838-0.183-1.113-0.183-1.627-0.183c-3.701,0-6.016,2.636-6.016,6.941v12.73h-6.711V44.119z"/>
	<path fill="#48C7F4" d="M459.922,35.729h6.715v6.294h-6.715V35.729z M459.922,44.061h6.715v25.045h-6.715V44.061z"/>
	<path fill="#48C7F4" d="M474.84,60.577v0.141c0,2.824,1.852,4.303,5.275,4.303c2.594,0,4.215-1.062,4.215-2.682
		c0-0.883-0.557-1.527-1.482-1.947c-0.465-0.23-0.973-0.322-3.518-0.973l-2.545-0.645c-0.973-0.234-2.037-0.607-2.596-0.791
		c-3.332-1.109-4.861-3.191-4.861-6.479c0-5.093,3.891-8.146,10.373-8.146c3.379,0,6.064,0.83,8.102,2.545
		c0.879,0.83,1.572,1.761,2.082,2.821c0.51,1.02,0.648,1.807,0.648,3.477h-6.297c0-0.141,0.047-0.281,0.047-0.418
		c0-2.131-1.9-3.612-4.676-3.612c-2.314,0-3.982,1.066-3.982,2.502c0,0.65,0.371,1.201,0.975,1.527
		c0.414,0.275,1.018,0.459,2.223,0.785l2.312,0.6l1.297,0.326c1.434,0.418,2.312,0.598,3.334,0.973
		c3.656,1.25,5.367,3.281,5.367,6.57c0,5.324-4.301,8.613-11.158,8.613c-7.266,0-11.387-3.383-11.615-9.492H474.84z"/>
	<g>
		<path fill="#FFFFFF" d="M344.265,82.213l-1.995-6.652c0.138-0.025,0.296-0.033,0.474-0.037c0.182-0.01,0.354-0.01,0.516-0.01
			c0.207,0,0.407,0.014,0.599,0.047l1.397,5.139l3.002-5.139c0.262-0.033,0.537-0.047,0.829-0.047c0.126,0,0.257,0,0.399,0.01
			c0.14,0.004,0.266,0.012,0.371,0.037l-4.121,6.697l-0.654,3.775c-0.263,0.02-0.52,0.037-0.77,0.037
			c-0.272,0-0.515-0.018-0.729-0.037L344.265,82.213z"/>
		<path fill="#FFFFFF" d="M352.347,86.206c-0.901,0-1.583-0.254-2.039-0.754c-0.453-0.5-0.684-1.205-0.684-2.117
			c0-0.537,0.082-1.098,0.248-1.684c0.164-0.584,0.421-1.119,0.766-1.596c0.345-0.484,0.775-0.883,1.296-1.195
			c0.52-0.314,1.132-0.473,1.842-0.473c0.912,0,1.594,0.25,2.054,0.756c0.454,0.508,0.686,1.213,0.686,2.125
			c0,0.541-0.085,1.104-0.249,1.688c-0.167,0.58-0.417,1.115-0.759,1.596c-0.338,0.477-0.771,0.875-1.295,1.182
			C353.686,86.047,353.066,86.206,352.347,86.206 M352.494,85.055c0.457,0,0.848-0.131,1.173-0.371
			c0.323-0.248,0.59-0.562,0.795-0.941c0.204-0.381,0.354-0.787,0.446-1.229c0.102-0.443,0.15-0.861,0.15-1.246
			c0-0.555-0.125-0.973-0.37-1.268c-0.25-0.289-0.601-0.439-1.058-0.439s-0.846,0.125-1.165,0.381
			c-0.321,0.25-0.583,0.566-0.786,0.949c-0.205,0.377-0.353,0.787-0.445,1.229c-0.094,0.443-0.139,0.852-0.139,1.23
			c0,0.557,0.118,0.977,0.357,1.264C351.691,84.909,352.037,85.055,352.494,85.055"/>
		<path fill="#FFFFFF" d="M358.86,78.559c0.104-0.02,0.228-0.033,0.368-0.047c0.143-0.006,0.265-0.012,0.371-0.012
			c0.109,0,0.225,0.006,0.351,0.012c0.126,0.014,0.241,0.027,0.35,0.047l-0.785,4.484c-0.059,0.312-0.091,0.59-0.091,0.83
			c0,0.389,0.091,0.662,0.272,0.832c0.177,0.162,0.419,0.246,0.721,0.246c0.265,0,0.517-0.082,0.771-0.242
			c0.254-0.158,0.49-0.393,0.714-0.709c0.223-0.303,0.425-0.695,0.604-1.146c0.183-0.455,0.323-0.979,0.433-1.574l0.477-2.721
			c0.119-0.02,0.245-0.033,0.382-0.047c0.136-0.006,0.257-0.012,0.36-0.012c0.107,0,0.229,0.006,0.361,0.012
			c0.129,0.014,0.241,0.027,0.342,0.047l-0.775,4.322c-0.103,0.582-0.191,1.086-0.252,1.506c-0.063,0.416-0.096,0.777-0.096,1.088
			c0,0.127,0.004,0.225,0.008,0.299c0.003,0.072,0.012,0.16,0.021,0.268c-0.106,0.02-0.22,0.029-0.342,0.047
			c-0.125,0.01-0.236,0.01-0.342,0.01c-0.099,0-0.207,0-0.329-0.01c-0.12-0.018-0.229-0.027-0.327-0.047
			c-0.04-0.123-0.059-0.348-0.059-0.67c0-0.182,0.013-0.359,0.036-0.52c0.024-0.168,0.052-0.326,0.079-0.486
			c-0.097,0.203-0.232,0.416-0.405,0.635c-0.176,0.223-0.38,0.416-0.613,0.59c-0.23,0.176-0.493,0.322-0.778,0.436
			c-0.287,0.121-0.588,0.18-0.912,0.18c-0.58,0-1.033-0.158-1.361-0.469c-0.326-0.311-0.484-0.791-0.484-1.441
			c0-0.146,0.006-0.305,0.027-0.488c0.017-0.18,0.046-0.35,0.073-0.514L358.86,78.559z"/>
		<path fill="#FFFFFF" d="M365.892,86.026c0.107-0.609,0.226-1.254,0.357-1.934c0.132-0.682,0.252-1.338,0.361-1.973
			c0.113-0.637,0.206-1.221,0.286-1.748c0.077-0.529,0.114-0.947,0.114-1.254c0-0.131-0.002-0.229-0.006-0.305
			c-0.007-0.072-0.02-0.164-0.035-0.268c0.104-0.02,0.222-0.035,0.348-0.035c0.127-0.006,0.242-0.01,0.351-0.01
			c0.097,0,0.204,0.004,0.325,0.01c0.124,0,0.233,0.016,0.329,0.035c0.02,0.08,0.035,0.158,0.045,0.254
			c0.008,0.094,0.014,0.221,0.014,0.383c0,0.229-0.014,0.449-0.043,0.656c0.125-0.174,0.264-0.34,0.412-0.496
			c0.152-0.154,0.32-0.295,0.506-0.42c0.186-0.127,0.387-0.227,0.613-0.297c0.223-0.07,0.469-0.113,0.74-0.113
			c0.076,0,0.162,0.006,0.256,0.02c0.092,0.008,0.166,0.023,0.225,0.045c0,0.191-0.023,0.41-0.064,0.66
			c-0.043,0.248-0.121,0.459-0.227,0.635c-0.037-0.012-0.098-0.023-0.186-0.033c-0.078-0.01-0.156-0.01-0.238-0.01
			c-0.65,0-1.178,0.232-1.578,0.697c-0.404,0.465-0.691,1.186-0.868,2.156l-0.597,3.344c-0.204,0.035-0.403,0.045-0.598,0.045
			h-0.362L365.892,86.026z"/>
		<path fill="#FFFFFF" d="M375.924,79.711h-0.902c0-0.195,0.014-0.383,0.037-0.562c0.025-0.18,0.072-0.375,0.154-0.59h2.33
			l-1.488,8.473c-0.297,1.697-1.227,2.551-2.783,2.551c-0.23,0-0.449-0.018-0.662-0.055c-0.207-0.029-0.393-0.076-0.557-0.137
			c0-0.154,0.025-0.34,0.078-0.551c0.055-0.215,0.119-0.4,0.199-0.557c0.104,0.043,0.236,0.07,0.396,0.098
			c0.16,0.021,0.311,0.033,0.447,0.033c0.355,0,0.672-0.109,0.938-0.322s0.449-0.592,0.547-1.143L375.924,79.711z M375.91,77.016
			c0-0.281,0.023-0.549,0.072-0.799c0.051-0.256,0.113-0.512,0.191-0.773c0.135-0.018,0.281-0.035,0.436-0.045
			s0.291-0.012,0.408-0.012c0.119,0,0.25,0.002,0.4,0.012s0.289,0.027,0.414,0.045c-0.01,0.281-0.039,0.555-0.088,0.807
			c-0.047,0.258-0.111,0.512-0.188,0.766c-0.137,0.016-0.285,0.031-0.439,0.033c-0.154,0.008-0.291,0.008-0.404,0.008
			c-0.107,0-0.24,0-0.395-0.008C376.162,77.047,376.029,77.032,375.91,77.016"/>
		<path fill="#FFFFFF" d="M381.457,86.206c-0.9,0-1.582-0.254-2.037-0.754s-0.686-1.205-0.686-2.117
			c0-0.537,0.082-1.098,0.248-1.684c0.164-0.584,0.422-1.119,0.766-1.596c0.344-0.484,0.777-0.883,1.293-1.195
			c0.521-0.314,1.137-0.473,1.846-0.473c0.912,0,1.598,0.25,2.053,0.756c0.453,0.508,0.686,1.213,0.686,2.125
			c0,0.541-0.084,1.104-0.25,1.688c-0.164,0.58-0.418,1.115-0.758,1.596c-0.338,0.477-0.768,0.875-1.293,1.182
			C382.799,86.047,382.178,86.206,381.457,86.206 M381.605,85.055c0.455,0,0.846-0.131,1.17-0.371
			c0.328-0.248,0.592-0.562,0.795-0.941c0.205-0.381,0.355-0.787,0.451-1.229c0.098-0.443,0.146-0.861,0.146-1.246
			c0-0.555-0.125-0.973-0.371-1.268c-0.248-0.289-0.602-0.439-1.057-0.439s-0.846,0.125-1.164,0.381
			c-0.322,0.25-0.584,0.566-0.787,0.949c-0.203,0.377-0.352,0.787-0.445,1.229c-0.092,0.443-0.137,0.852-0.137,1.23
			c0,0.557,0.117,0.977,0.357,1.264C380.801,84.909,381.145,85.055,381.605,85.055"/>
		<path fill="#FFFFFF" d="M387.969,78.559c0.105-0.02,0.23-0.033,0.369-0.047c0.143-0.006,0.264-0.012,0.375-0.012
			c0.105,0,0.221,0.006,0.346,0.012c0.129,0.014,0.246,0.027,0.354,0.047l-0.789,4.484c-0.057,0.312-0.09,0.59-0.09,0.83
			c0,0.389,0.094,0.662,0.271,0.832c0.178,0.162,0.418,0.246,0.721,0.246c0.264,0,0.52-0.082,0.771-0.242
			c0.254-0.158,0.49-0.393,0.713-0.709c0.225-0.303,0.428-0.695,0.607-1.146c0.18-0.455,0.324-0.979,0.43-1.574l0.48-2.721
			c0.117-0.02,0.244-0.033,0.377-0.047c0.137-0.006,0.26-0.012,0.363-0.012c0.109,0,0.227,0.006,0.359,0.012
			c0.129,0.014,0.244,0.027,0.344,0.047l-0.775,4.322c-0.105,0.582-0.189,1.086-0.254,1.506c-0.064,0.416-0.092,0.777-0.092,1.088
			c0,0.127,0,0.225,0.006,0.299c0.004,0.072,0.012,0.16,0.021,0.268c-0.105,0.02-0.223,0.029-0.344,0.047
			c-0.119,0.01-0.236,0.01-0.34,0.01c-0.102,0-0.209,0-0.33-0.01c-0.119-0.018-0.232-0.027-0.326-0.047
			c-0.041-0.123-0.061-0.348-0.061-0.67c0-0.182,0.014-0.359,0.037-0.52c0.027-0.168,0.053-0.326,0.082-0.486
			c-0.1,0.203-0.234,0.416-0.406,0.635c-0.18,0.223-0.381,0.416-0.617,0.59c-0.229,0.176-0.49,0.322-0.777,0.436
			c-0.287,0.121-0.59,0.18-0.91,0.18c-0.58,0-1.035-0.158-1.359-0.469c-0.326-0.311-0.49-0.791-0.49-1.441
			c0-0.146,0.012-0.305,0.031-0.488c0.016-0.18,0.043-0.35,0.07-0.514L387.969,78.559z"/>
		<path fill="#FFFFFF" d="M395.002,86.026c0.107-0.609,0.227-1.254,0.357-1.934c0.131-0.682,0.25-1.338,0.363-1.973
			c0.111-0.637,0.205-1.221,0.283-1.748c0.078-0.529,0.117-0.947,0.117-1.254c0-0.131-0.002-0.229-0.008-0.305
			c-0.006-0.072-0.018-0.164-0.035-0.268c0.107-0.02,0.223-0.035,0.352-0.035c0.125-0.006,0.238-0.01,0.348-0.01
			c0.096,0,0.205,0.004,0.326,0.01c0.123,0,0.232,0.016,0.33,0.035c0.02,0.08,0.033,0.158,0.045,0.254
			c0.008,0.094,0.012,0.221,0.012,0.383c0,0.229-0.012,0.449-0.043,0.656c0.125-0.174,0.266-0.34,0.414-0.496
			c0.152-0.154,0.318-0.295,0.502-0.42c0.184-0.127,0.391-0.227,0.611-0.297c0.225-0.07,0.473-0.113,0.744-0.113
			c0.078,0,0.162,0.006,0.256,0.02c0.09,0.008,0.166,0.023,0.227,0.045c0,0.191-0.023,0.41-0.068,0.66
			c-0.043,0.248-0.119,0.459-0.227,0.635c-0.035-0.012-0.098-0.023-0.182-0.033c-0.082-0.01-0.162-0.01-0.24-0.01
			c-0.648,0-1.176,0.232-1.578,0.697c-0.404,0.465-0.693,1.186-0.867,2.156l-0.598,3.344c-0.205,0.035-0.402,0.045-0.6,0.045h-0.361
			L395.002,86.026z"/>
		<path fill="#FFFFFF" d="M401.207,81.706c0.105-0.588,0.189-1.082,0.254-1.5c0.062-0.416,0.094-0.781,0.094-1.088
			c0-0.131,0-0.229-0.004-0.305c-0.006-0.072-0.018-0.164-0.041-0.268c0.109-0.02,0.227-0.035,0.352-0.041
			c0.123-0.014,0.242-0.021,0.35-0.021c0.096,0,0.205,0.008,0.326,0.021c0.123,0.006,0.232,0.021,0.326,0.041
			c0.021,0.074,0.037,0.164,0.045,0.268s0.014,0.238,0.014,0.398c0,0.186-0.012,0.363-0.035,0.527
			c-0.023,0.166-0.053,0.324-0.08,0.48c0.096-0.201,0.234-0.418,0.408-0.633c0.174-0.219,0.381-0.414,0.611-0.59
			c0.234-0.176,0.494-0.32,0.781-0.438c0.285-0.117,0.588-0.172,0.908-0.172c0.584,0,1.037,0.152,1.361,0.463
			c0.326,0.311,0.488,0.793,0.488,1.445c0,0.143-0.01,0.303-0.031,0.48c-0.018,0.186-0.041,0.361-0.072,0.52l-0.83,4.73
			c-0.115,0.021-0.242,0.035-0.377,0.045c-0.133,0.012-0.256,0.018-0.365,0.018c-0.107,0-0.223-0.006-0.355-0.018
			c-0.133-0.01-0.246-0.023-0.344-0.045l0.787-4.482c0.027-0.154,0.051-0.301,0.068-0.455c0.012-0.143,0.021-0.266,0.021-0.375
			c0-0.389-0.092-0.662-0.27-0.83c-0.182-0.164-0.422-0.246-0.723-0.246c-0.262,0-0.52,0.08-0.771,0.24
			c-0.254,0.162-0.49,0.393-0.715,0.709c-0.223,0.307-0.424,0.693-0.605,1.146c-0.176,0.459-0.32,0.979-0.424,1.572l-0.482,2.721
			c-0.117,0.021-0.244,0.035-0.381,0.045c-0.135,0.012-0.258,0.018-0.363,0.018c-0.109,0-0.227-0.006-0.357-0.018
			c-0.131-0.01-0.246-0.023-0.34-0.045L401.207,81.706z"/>
		<path fill="#FFFFFF" d="M410.219,83.061c0.031,0.648,0.195,1.137,0.494,1.469c0.307,0.328,0.766,0.492,1.4,0.492
			c0.387,0,0.76-0.049,1.107-0.131c0.348-0.098,0.664-0.195,0.947-0.305c0.088,0.146,0.152,0.322,0.188,0.527
			c0.039,0.203,0.059,0.406,0.059,0.611c-0.145,0.062-0.324,0.131-0.531,0.188c-0.209,0.059-0.428,0.107-0.654,0.148
			c-0.227,0.047-0.461,0.082-0.693,0.107c-0.232,0.021-0.447,0.037-0.639,0.037c-0.576,0-1.057-0.076-1.451-0.227
			s-0.713-0.363-0.957-0.623c-0.25-0.27-0.432-0.586-0.541-0.947c-0.113-0.363-0.168-0.76-0.168-1.189c0-0.59,0.1-1.176,0.299-1.758
			c0.197-0.574,0.482-1.09,0.857-1.543c0.375-0.461,0.82-0.828,1.34-1.111c0.52-0.281,1.098-0.42,1.742-0.42
			c0.641,0,1.146,0.158,1.521,0.473c0.373,0.312,0.562,0.736,0.562,1.262c0,0.426-0.107,0.791-0.316,1.113
			c-0.207,0.309-0.5,0.58-0.863,0.805c-0.371,0.225-0.807,0.414-1.305,0.557c-0.504,0.143-1.047,0.258-1.641,0.344L410.219,83.061z
			 M411.135,81.836c0.496-0.088,0.906-0.186,1.232-0.301c0.328-0.107,0.59-0.232,0.785-0.365c0.188-0.135,0.322-0.271,0.4-0.41
			c0.08-0.15,0.117-0.311,0.117-0.484c0-0.221-0.078-0.404-0.232-0.543c-0.154-0.146-0.379-0.213-0.67-0.213
			c-0.309,0-0.598,0.066-0.857,0.213c-0.262,0.139-0.5,0.322-0.709,0.555c-0.207,0.221-0.383,0.488-0.531,0.785
			c-0.143,0.295-0.256,0.596-0.334,0.902L411.135,81.836z"/>
		<path fill="#FFFFFF" d="M418.666,85.299c0.311-0.67,0.586-1.283,0.828-1.834c0.246-0.557,0.465-1.064,0.666-1.529
			c0.195-0.465,0.379-0.891,0.537-1.283c0.164-0.383,0.309-0.754,0.443-1.104c0.059-0.152,0.105-0.307,0.131-0.453
			c0.031-0.143,0.047-0.256,0.047-0.334c0-0.053-0.004-0.086-0.008-0.119c-0.004-0.027-0.008-0.055-0.008-0.084
			c0.184-0.027,0.387-0.047,0.611-0.047h0.918c0.008,0.043,0.014,0.08,0.014,0.123v0.115c0,0.234-0.051,0.486-0.146,0.754
			c-0.098,0.273-0.201,0.547-0.318,0.818c-0.438,0.936-0.906,1.945-1.406,3.021c-0.5,1.07-1.059,2.256-1.684,3.561
			c-0.271,0.568-0.533,1.027-0.785,1.379c-0.252,0.354-0.5,0.621-0.75,0.818c-0.246,0.195-0.5,0.32-0.75,0.389
			c-0.252,0.07-0.525,0.107-0.814,0.107c-0.336,0-0.67-0.051-0.99-0.146c0.01-0.215,0.039-0.42,0.086-0.611
			c0.051-0.193,0.127-0.363,0.234-0.51c0.088,0.029,0.193,0.057,0.32,0.078c0.129,0.025,0.24,0.037,0.35,0.037
			c0.145,0,0.295-0.021,0.451-0.066c0.154-0.043,0.32-0.146,0.488-0.314c0.168-0.164,0.352-0.404,0.545-0.729
			c0.193-0.316,0.41-0.754,0.641-1.311c-0.076,0.016-0.16,0.018-0.25,0.018h-0.477c-0.078,0-0.146-0.002-0.203-0.018
			c-0.166-1.244-0.33-2.484-0.488-3.725c-0.162-1.244-0.324-2.486-0.49-3.742c0.137-0.02,0.258-0.033,0.373-0.047
			c0.113-0.006,0.236-0.012,0.371-0.012s0.266,0.006,0.395,0.012c0.123,0.014,0.252,0.027,0.375,0.047L418.666,85.299z"/>
		<path fill="#FFFFFF" d="M427.986,78.342c0.088-0.537,0.158-1,0.219-1.393c0.055-0.393,0.088-0.744,0.088-1.055v-0.293
			c0-0.066-0.006-0.148-0.014-0.242c0.104-0.021,0.234-0.039,0.383-0.053c0.152-0.002,0.281-0.008,0.387-0.008
			c0.096,0,0.209,0,0.328,0.006c0.121,0.002,0.234,0.016,0.344,0.037c0.008,0.096,0.014,0.186,0.021,0.27
			c0.006,0.082,0.006,0.17,0.006,0.268c0,0.225-0.021,0.518-0.07,0.869c-0.049,0.369-0.105,0.699-0.162,1.01l-0.336,1.906
			c0.129-0.172,0.266-0.336,0.416-0.492c0.152-0.158,0.324-0.291,0.516-0.41c0.195-0.115,0.412-0.207,0.658-0.279
			c0.24-0.068,0.516-0.096,0.826-0.096c0.67,0,1.201,0.232,1.59,0.707c0.387,0.467,0.582,1.133,0.582,1.984
			c0,0.691-0.105,1.344-0.311,1.959c-0.209,0.617-0.525,1.158-0.951,1.631c-0.42,0.473-0.953,0.844-1.584,1.119
			c-0.637,0.273-1.379,0.418-2.232,0.418c-0.371,0-0.744-0.037-1.109-0.107c-0.371-0.064-0.68-0.146-0.918-0.242L427.986,78.342z
			 M428.26,84.895c0.109,0.027,0.242,0.051,0.396,0.068c0.154,0.021,0.305,0.027,0.436,0.027c0.451,0,0.863-0.088,1.246-0.273
			s0.713-0.438,0.99-0.766c0.277-0.324,0.494-0.707,0.658-1.154c0.156-0.447,0.238-0.932,0.238-1.457s-0.109-0.939-0.328-1.24
			c-0.219-0.311-0.543-0.463-0.967-0.463c-0.252,0-0.496,0.055-0.734,0.158c-0.227,0.109-0.443,0.277-0.645,0.508
			c-0.197,0.238-0.377,0.539-0.529,0.912c-0.156,0.377-0.279,0.834-0.365,1.381L428.26,84.895z"/>
		<path fill="#FFFFFF" d="M436.465,83.061c0.027,0.648,0.191,1.137,0.49,1.469c0.305,0.328,0.768,0.492,1.4,0.492
			c0.387,0,0.758-0.049,1.104-0.131c0.352-0.098,0.668-0.195,0.949-0.305c0.088,0.146,0.152,0.322,0.189,0.527
			c0.039,0.203,0.059,0.406,0.059,0.611c-0.148,0.062-0.326,0.131-0.533,0.188c-0.209,0.059-0.426,0.107-0.654,0.148
			c-0.229,0.047-0.459,0.082-0.691,0.107c-0.236,0.021-0.447,0.037-0.641,0.037c-0.574,0-1.055-0.076-1.451-0.227
			c-0.393-0.15-0.713-0.363-0.957-0.623c-0.25-0.27-0.43-0.586-0.543-0.947c-0.107-0.363-0.164-0.76-0.164-1.189
			c0-0.59,0.098-1.176,0.299-1.758c0.197-0.574,0.482-1.09,0.855-1.543c0.377-0.461,0.822-0.828,1.344-1.111
			c0.518-0.281,1.1-0.42,1.738-0.42c0.641,0,1.148,0.158,1.521,0.473c0.375,0.312,0.559,0.736,0.559,1.262
			c0,0.426-0.104,0.791-0.312,1.113c-0.207,0.309-0.494,0.58-0.863,0.805c-0.371,0.225-0.803,0.414-1.305,0.557
			s-1.045,0.258-1.639,0.344L436.465,83.061z M437.377,81.836c0.5-0.088,0.908-0.186,1.23-0.301
			c0.326-0.107,0.588-0.232,0.779-0.365c0.195-0.135,0.33-0.271,0.408-0.41c0.08-0.15,0.119-0.311,0.119-0.484
			c0-0.221-0.08-0.404-0.232-0.543c-0.154-0.146-0.383-0.213-0.672-0.213c-0.309,0-0.598,0.066-0.859,0.213
			c-0.262,0.139-0.498,0.322-0.705,0.555c-0.213,0.221-0.385,0.488-0.531,0.785c-0.146,0.295-0.258,0.596-0.338,0.902
			L437.377,81.836z"/>
		<path fill="#FFFFFF" d="M446.875,84.34c-0.107,0.213-0.25,0.43-0.422,0.645c-0.176,0.217-0.383,0.418-0.615,0.6
			c-0.23,0.18-0.49,0.328-0.777,0.441c-0.285,0.117-0.596,0.18-0.926,0.18c-0.639,0-1.123-0.213-1.449-0.639
			c-0.322-0.418-0.486-0.998-0.486-1.721c0-0.689,0.107-1.365,0.322-2.016c0.209-0.66,0.527-1.24,0.943-1.748
			c0.416-0.512,0.938-0.922,1.561-1.232c0.619-0.311,1.346-0.463,2.17-0.463c0.35,0,0.705,0.025,1.07,0.08
			c0.361,0.051,0.678,0.125,0.953,0.225c-0.223,1.227-0.438,2.436-0.652,3.643c-0.205,1.201-0.422,2.414-0.645,3.637
			c-0.117,0.66-0.309,1.215-0.582,1.672c-0.27,0.455-0.605,0.83-1.008,1.115c-0.395,0.289-0.846,0.496-1.354,0.623
			c-0.504,0.135-1.047,0.201-1.631,0.201c-0.33,0-0.66-0.033-0.99-0.092c-0.33-0.057-0.602-0.123-0.816-0.215
			c0.014-0.416,0.119-0.803,0.322-1.164c0.195,0.051,0.42,0.104,0.688,0.152c0.26,0.051,0.545,0.078,0.855,0.078
			c0.439,0,0.826-0.039,1.168-0.127c0.338-0.092,0.641-0.232,0.902-0.436c0.258-0.203,0.482-0.477,0.662-0.807
			c0.178-0.33,0.322-0.744,0.43-1.24L446.875,84.34z M447.631,79.678c-0.23-0.055-0.492-0.082-0.787-0.082
			c-0.486,0-0.922,0.109-1.312,0.334c-0.389,0.225-0.717,0.52-0.986,0.896c-0.273,0.375-0.484,0.797-0.637,1.262
			c-0.15,0.475-0.225,0.955-0.225,1.447c0,0.465,0.09,0.83,0.264,1.092c0.174,0.254,0.42,0.383,0.74,0.383
			c0.312,0,0.607-0.098,0.883-0.293c0.273-0.191,0.529-0.459,0.756-0.799c0.23-0.344,0.43-0.738,0.598-1.203
			c0.168-0.463,0.307-0.959,0.416-1.494L447.631,79.678z"/>
		<path fill="#FFFFFF" d="M451.633,79.711h-0.9c0-0.195,0.014-0.383,0.035-0.568c0.023-0.186,0.076-0.381,0.154-0.584h2.33
			l-1.312,7.467c-0.105,0.021-0.229,0.035-0.371,0.035c-0.139,0.008-0.264,0.01-0.369,0.01c-0.107,0-0.223-0.002-0.338-0.01
			c-0.113,0-0.227-0.014-0.332-0.035L451.633,79.711z M451.621,77.016c0-0.281,0.023-0.549,0.074-0.799
			c0.049-0.256,0.109-0.512,0.186-0.773c0.137-0.018,0.283-0.035,0.439-0.045c0.152-0.01,0.291-0.012,0.408-0.012
			c0.115,0,0.244,0.002,0.398,0.012c0.152,0.01,0.291,0.027,0.414,0.045c-0.008,0.281-0.039,0.555-0.088,0.807
			c-0.045,0.258-0.107,0.512-0.184,0.766c-0.139,0.016-0.285,0.031-0.441,0.033c-0.154,0.008-0.289,0.008-0.406,0.008
			c-0.109,0-0.24,0-0.391-0.008C451.873,77.047,451.736,77.032,451.621,77.016"/>
		<path fill="#FFFFFF" d="M455.232,81.706c0.109-0.588,0.193-1.082,0.256-1.5c0.062-0.416,0.092-0.781,0.092-1.088
			c0-0.131,0-0.229-0.006-0.305c-0.006-0.072-0.016-0.164-0.037-0.268c0.105-0.02,0.227-0.035,0.35-0.041
			c0.125-0.014,0.244-0.021,0.35-0.021c0.096,0,0.207,0.008,0.328,0.021c0.121,0.006,0.232,0.021,0.326,0.041
			c0.02,0.074,0.037,0.164,0.047,0.268s0.014,0.238,0.014,0.398c0,0.186-0.014,0.363-0.041,0.527
			c-0.021,0.166-0.047,0.324-0.076,0.48c0.098-0.201,0.232-0.418,0.406-0.633c0.176-0.219,0.381-0.414,0.615-0.59
			c0.23-0.176,0.49-0.32,0.775-0.438c0.289-0.117,0.59-0.172,0.91-0.172c0.586,0,1.037,0.152,1.361,0.463
			c0.328,0.311,0.49,0.793,0.49,1.445c0,0.143-0.012,0.303-0.029,0.48c-0.021,0.186-0.045,0.361-0.072,0.52l-0.832,4.73
			c-0.117,0.021-0.242,0.035-0.375,0.045c-0.139,0.012-0.26,0.018-0.369,0.018c-0.105,0-0.221-0.006-0.352-0.018
			c-0.133-0.01-0.248-0.023-0.346-0.045l0.785-4.482c0.031-0.154,0.051-0.301,0.066-0.455c0.014-0.143,0.023-0.266,0.023-0.375
			c0-0.389-0.094-0.662-0.268-0.83c-0.184-0.164-0.42-0.246-0.725-0.246c-0.262,0-0.518,0.08-0.77,0.24
			c-0.254,0.162-0.492,0.393-0.715,0.709c-0.221,0.307-0.424,0.693-0.604,1.146c-0.178,0.459-0.324,0.979-0.43,1.572l-0.48,2.721
			c-0.119,0.021-0.246,0.035-0.379,0.045c-0.139,0.012-0.26,0.018-0.365,0.018c-0.107,0-0.225-0.006-0.355-0.018
			c-0.135-0.01-0.246-0.023-0.344-0.045L455.232,81.706z"/>
		<path fill="#FFFFFF" d="M464.65,82.518c-0.145-0.059-0.299-0.125-0.461-0.217c-0.164-0.088-0.318-0.197-0.455-0.334
			c-0.135-0.135-0.25-0.314-0.34-0.52c-0.092-0.205-0.139-0.457-0.139-0.752c0-0.355,0.074-0.676,0.219-0.963
			c0.143-0.289,0.35-0.529,0.611-0.729c0.26-0.197,0.574-0.355,0.939-0.459c0.363-0.109,0.77-0.158,1.215-0.158
			c0.398,0,0.775,0.037,1.139,0.125c0.357,0.092,0.639,0.189,0.842,0.295c-0.076,0.375-0.217,0.742-0.424,1.092
			c-0.164-0.078-0.391-0.158-0.68-0.242c-0.293-0.08-0.605-0.123-0.938-0.123c-0.412,0-0.76,0.076-1.037,0.219
			c-0.279,0.146-0.418,0.402-0.418,0.756c0,0.225,0.068,0.412,0.199,0.564c0.129,0.148,0.365,0.293,0.707,0.43l0.32,0.143
			c0.186,0.088,0.377,0.186,0.572,0.273c0.201,0.1,0.379,0.223,0.541,0.361c0.158,0.143,0.289,0.311,0.391,0.512
			c0.104,0.193,0.156,0.439,0.156,0.732c0,0.467-0.088,0.865-0.266,1.203c-0.172,0.332-0.414,0.607-0.719,0.83
			c-0.305,0.217-0.66,0.377-1.062,0.486c-0.4,0.109-0.84,0.162-1.303,0.162c-0.391,0-0.771-0.037-1.146-0.107
			c-0.371-0.064-0.684-0.154-0.922-0.258c0.02-0.217,0.055-0.416,0.105-0.611c0.057-0.197,0.133-0.377,0.242-0.553
			c0.252,0.105,0.547,0.191,0.891,0.248c0.34,0.066,0.654,0.104,0.943,0.104c0.244,0,0.473-0.027,0.686-0.07
			c0.213-0.041,0.398-0.111,0.553-0.203c0.156-0.094,0.281-0.219,0.373-0.367c0.094-0.162,0.139-0.354,0.139-0.584
			c0-0.301-0.09-0.529-0.262-0.682c-0.176-0.145-0.426-0.285-0.742-0.416L464.65,82.518z"/>
		<path fill="#FFFFFF" d="M472.709,78.559c0.133-0.02,0.264-0.033,0.391-0.047c0.125-0.006,0.256-0.012,0.393-0.012
			c0.281,0,0.533,0.018,0.758,0.059l0.57,5.795l2.328-5.795c0.105-0.02,0.223-0.033,0.35-0.047c0.125-0.006,0.24-0.012,0.348-0.012
			c0.127,0,0.25,0.006,0.367,0.012c0.113,0.014,0.232,0.027,0.348,0.047l0.715,5.807l1.818-4.406
			c0.117-0.281,0.195-0.531,0.24-0.754c0.045-0.219,0.066-0.389,0.066-0.514v-0.133c0.117-0.02,0.234-0.033,0.355-0.047
			c0.123-0.006,0.25-0.012,0.387-0.012c0.311,0,0.576,0.018,0.799,0.059v0.057c0,0.213-0.037,0.441-0.119,0.678
			c-0.084,0.24-0.215,0.539-0.389,0.898l-2.709,5.834c-0.127,0.021-0.258,0.035-0.4,0.045c-0.139,0.012-0.277,0.018-0.416,0.018
			c-0.115,0-0.236-0.006-0.359-0.018c-0.129-0.01-0.246-0.023-0.352-0.045l-0.727-5.367l-2.215,5.367
			c-0.129,0.021-0.262,0.035-0.398,0.045c-0.145,0.012-0.279,0.018-0.404,0.018c-0.113,0-0.24-0.006-0.371-0.018
			c-0.129-0.01-0.25-0.023-0.357-0.045L472.709,78.559z"/>
		<path fill="#FFFFFF" d="M484.879,79.711h-0.902c0-0.195,0.012-0.383,0.035-0.568c0.025-0.186,0.076-0.381,0.156-0.584h2.328
			l-1.309,7.467c-0.107,0.021-0.232,0.035-0.373,0.035c-0.141,0.008-0.266,0.01-0.371,0.01c-0.107,0-0.219-0.002-0.334-0.01
			c-0.119,0-0.23-0.014-0.338-0.035L484.879,79.711z M484.867,77.016c0-0.281,0.021-0.549,0.07-0.799
			c0.049-0.256,0.109-0.512,0.188-0.773c0.139-0.018,0.283-0.035,0.439-0.045c0.154-0.01,0.289-0.012,0.406-0.012
			c0.119,0,0.25,0.002,0.4,0.012c0.152,0.01,0.291,0.027,0.418,0.045c-0.01,0.281-0.041,0.555-0.09,0.807
			c-0.047,0.258-0.107,0.512-0.188,0.766c-0.135,0.016-0.281,0.031-0.438,0.033c-0.158,0.008-0.295,0.008-0.406,0.008
			c-0.107,0-0.238,0-0.395-0.008C485.115,77.047,484.982,77.032,484.867,77.016"/>
		<path fill="#FFFFFF" d="M488.896,79.711h-1.178c0-0.195,0.014-0.383,0.045-0.562c0.025-0.18,0.08-0.371,0.16-0.59h1.164
			c0.049-0.25,0.092-0.508,0.133-0.773c0.037-0.264,0.059-0.531,0.059-0.818v-0.227c0.191-0.102,0.426-0.174,0.697-0.223
			s0.504-0.072,0.697-0.072c0.01,0.09,0.018,0.176,0.023,0.264c0.008,0.092,0.008,0.176,0.008,0.279
			c0,0.295-0.041,0.672-0.119,1.119l-0.086,0.451h1.879c0,0.219-0.014,0.41-0.045,0.59c-0.027,0.18-0.078,0.367-0.145,0.562h-1.861
			l-0.57,3.158c-0.049,0.219-0.092,0.453-0.131,0.688c-0.041,0.244-0.059,0.459-0.059,0.65c0,0.291,0.074,0.496,0.225,0.602
			c0.152,0.113,0.355,0.168,0.605,0.168c0.164,0,0.314-0.014,0.451-0.033c0.137-0.021,0.271-0.053,0.408-0.092
			c0.029,0.094,0.053,0.203,0.072,0.318c0.02,0.113,0.029,0.234,0.029,0.375v0.219c0,0.07-0.006,0.143-0.016,0.223
			c-0.127,0.033-0.291,0.074-0.494,0.109c-0.199,0.033-0.424,0.051-0.654,0.051c-0.312,0-0.594-0.023-0.852-0.07
			c-0.258-0.039-0.479-0.121-0.664-0.242c-0.184-0.123-0.328-0.289-0.43-0.5c-0.102-0.209-0.152-0.48-0.152-0.816
			c0-0.189,0.014-0.385,0.051-0.594c0.033-0.205,0.072-0.422,0.109-0.65L488.896,79.711z"/>
		<path fill="#FFFFFF" d="M494.039,78.354c0.096-0.541,0.176-1.012,0.232-1.404c0.057-0.398,0.09-0.744,0.09-1.055
			c0-0.119-0.004-0.211-0.012-0.277c-0.002-0.066-0.01-0.154-0.021-0.268c0.109-0.012,0.24-0.029,0.395-0.043
			c0.154-0.002,0.287-0.008,0.395-0.008c0.096,0,0.205,0.006,0.324,0.008c0.123,0.014,0.234,0.031,0.33,0.043
			c0.029,0.178,0.045,0.361,0.045,0.545c0,0.109-0.008,0.234-0.021,0.383c-0.018,0.154-0.033,0.312-0.051,0.471
			c-0.021,0.168-0.045,0.338-0.076,0.514c-0.025,0.178-0.057,0.342-0.084,0.496c-0.07,0.332-0.133,0.656-0.193,0.982
			c-0.055,0.328-0.113,0.65-0.172,0.979c0.273-0.357,0.621-0.666,1.051-0.93c0.426-0.258,0.91-0.393,1.453-0.393
			c0.592,0,1.057,0.158,1.393,0.469c0.332,0.311,0.502,0.787,0.502,1.438c0,0.152-0.01,0.307-0.031,0.48
			c-0.018,0.178-0.043,0.354-0.072,0.527l-0.83,4.715c-0.107,0.021-0.23,0.035-0.371,0.043c-0.141,0-0.264,0.002-0.373,0.002
			c-0.104,0-0.223-0.002-0.355-0.002c-0.131-0.008-0.244-0.021-0.342-0.043c0.135-0.752,0.268-1.5,0.395-2.244
			c0.125-0.729,0.258-1.48,0.395-2.238c0.018-0.145,0.037-0.291,0.055-0.438c0.021-0.145,0.029-0.273,0.029-0.377
			c0-0.367-0.1-0.645-0.297-0.811c-0.197-0.18-0.455-0.266-0.764-0.266c-0.227,0-0.453,0.049-0.686,0.143
			c-0.232,0.098-0.455,0.268-0.664,0.502c-0.207,0.244-0.402,0.561-0.574,0.961c-0.174,0.408-0.316,0.912-0.42,1.527
			c-0.109,0.549-0.209,1.096-0.303,1.625c-0.092,0.535-0.184,1.074-0.283,1.615c-0.135,0.021-0.275,0.035-0.422,0.043
			c-0.145,0-0.287,0.002-0.424,0.002c-0.045,0-0.133-0.002-0.26-0.002c-0.125-0.008-0.236-0.021-0.336-0.043L494.039,78.354z"/>
		<path fill="#FFFFFF" d="M505.453,78.559c0.111-0.02,0.234-0.033,0.375-0.047c0.139-0.006,0.262-0.012,0.371-0.012
			c0.107,0,0.221,0.006,0.348,0.012c0.127,0.014,0.244,0.027,0.348,0.047l-0.781,4.484c-0.062,0.312-0.092,0.59-0.092,0.83
			c0,0.389,0.092,0.662,0.271,0.832c0.178,0.162,0.416,0.246,0.721,0.246c0.264,0,0.52-0.082,0.771-0.242
			c0.256-0.158,0.49-0.393,0.713-0.709c0.225-0.303,0.424-0.695,0.605-1.146c0.18-0.455,0.324-0.979,0.428-1.574l0.482-2.721
			c0.117-0.02,0.244-0.033,0.379-0.047c0.135-0.006,0.256-0.012,0.365-0.012c0.102,0,0.221,0.006,0.355,0.012
			c0.129,0.014,0.244,0.027,0.342,0.047l-0.771,4.322c-0.107,0.582-0.193,1.086-0.256,1.506c-0.062,0.416-0.094,0.777-0.094,1.088
			c0,0.127,0.002,0.225,0.006,0.299c0.008,0.072,0.014,0.16,0.021,0.268c-0.104,0.02-0.219,0.029-0.342,0.047
			c-0.121,0.01-0.234,0.01-0.342,0.01c-0.096,0-0.207,0-0.328-0.01c-0.121-0.018-0.23-0.027-0.326-0.047
			c-0.041-0.123-0.059-0.348-0.059-0.67c0-0.182,0.012-0.359,0.037-0.52c0.023-0.168,0.049-0.326,0.08-0.486
			c-0.1,0.203-0.234,0.416-0.408,0.635c-0.176,0.223-0.381,0.416-0.611,0.59c-0.234,0.176-0.494,0.322-0.781,0.436
			c-0.285,0.121-0.588,0.18-0.906,0.18c-0.586,0-1.037-0.158-1.363-0.469c-0.328-0.311-0.488-0.791-0.488-1.441
			c0-0.146,0.012-0.305,0.027-0.488c0.02-0.18,0.047-0.35,0.074-0.514L505.453,78.559z"/>
		<path fill="#FFFFFF" d="M514.428,82.518c-0.15-0.059-0.305-0.125-0.469-0.217c-0.166-0.088-0.312-0.197-0.449-0.334
			c-0.139-0.135-0.254-0.314-0.344-0.52c-0.092-0.205-0.137-0.457-0.137-0.752c0-0.355,0.07-0.676,0.219-0.963
			c0.145-0.289,0.346-0.529,0.611-0.729c0.262-0.197,0.574-0.355,0.938-0.459c0.363-0.109,0.771-0.158,1.217-0.158
			c0.396,0,0.775,0.037,1.137,0.125c0.359,0.092,0.641,0.189,0.846,0.295c-0.08,0.375-0.219,0.742-0.424,1.092
			c-0.166-0.078-0.396-0.158-0.686-0.242c-0.289-0.08-0.604-0.123-0.934-0.123c-0.416,0-0.764,0.076-1.039,0.219
			c-0.279,0.146-0.416,0.402-0.416,0.756c0,0.225,0.068,0.412,0.197,0.564c0.131,0.148,0.365,0.293,0.705,0.43l0.318,0.143
			c0.188,0.088,0.377,0.186,0.578,0.273c0.201,0.1,0.381,0.223,0.541,0.361c0.156,0.143,0.289,0.311,0.391,0.512
			c0.102,0.193,0.15,0.439,0.15,0.732c0,0.467-0.084,0.865-0.26,1.203c-0.172,0.332-0.414,0.607-0.721,0.83
			c-0.305,0.217-0.66,0.377-1.064,0.486c-0.4,0.109-0.836,0.162-1.303,0.162c-0.385,0-0.77-0.037-1.143-0.107
			c-0.375-0.064-0.682-0.154-0.922-0.258c0.016-0.217,0.051-0.416,0.107-0.611c0.053-0.197,0.133-0.377,0.242-0.553
			c0.25,0.105,0.547,0.191,0.885,0.248c0.34,0.066,0.658,0.104,0.947,0.104c0.242,0,0.469-0.027,0.686-0.07
			c0.213-0.041,0.398-0.111,0.553-0.203c0.154-0.094,0.277-0.219,0.373-0.367c0.09-0.162,0.135-0.354,0.135-0.584
			c0-0.301-0.086-0.529-0.258-0.682c-0.18-0.145-0.426-0.285-0.744-0.416L514.428,82.518z"/>
	</g>
</g>
</svg>
